<svg xmlns="http://www.w3.org/2000/svg" width="30" height="30"><g data-name="Dark Blue"><circle cx="15" cy="15" r="15" fill="#de0000" data-name="楕円形 261"/></g><g data-name="グループ 7484"><path fill="#fff" d="M23.645 10.858a2.128 2.128 0 0 0-1.5-1.5 50.8 50.8 0 0 0-6.642-.355 50.806 50.806 0 0 0-6.642.355 2.128 2.128 0 0 0-1.5 1.5 23.74 23.74 0 0 0 0 8.183 2.129 2.129 0 0 0 1.5 1.5 50.806 50.806 0 0 0 6.642.355 50.8 50.8 0 0 0 6.642-.355 2.13 2.13 0 0 0 1.5-1.5 23.741 23.741 0 0 0 0-8.183Z" data-name="パス 506"/><path fill="#de0000" d="m14.013 17.273 4.022-2.322-4.022-2.322Z" data-name="パス 507"/></g></svg>