<svg xmlns="http://www.w3.org/2000/svg" width="30" height="30"><g data-name="Dark Blue"><circle cx="15" cy="15" r="15" fill="#1da1f2" data-name="楕円形 261"/></g><g data-name="Logo — FIXED"><path fill="#fff" d="M12.256 22.912a10.221 10.221 0 0 0 10.29-10.29c0-.158 0-.315-.007-.465a7.41 7.41 0 0 0 1.807-1.875 7.341 7.341 0 0 1-2.077.57 3.615 3.615 0 0 0 1.59-2 7.324 7.324 0 0 1-2.295.878 3.619 3.619 0 0 0-6.255 2.475 3.314 3.314 0 0 0 .1.825 10.259 10.259 0 0 1-7.455-3.78 3.615 3.615 0 0 0 1.125 4.823 3.553 3.553 0 0 1-1.635-.45v.045a3.62 3.62 0 0 0 2.9 3.547 3.6 3.6 0 0 1-.952.128 3.452 3.452 0 0 1-.682-.068 3.611 3.611 0 0 0 3.375 2.513 7.27 7.27 0 0 1-4.493 1.545 6.575 6.575 0 0 1-.863-.052 10.076 10.076 0 0 0 5.528 1.635" data-name="パス 8912"/></g></svg>