<svg xmlns="http://www.w3.org/2000/svg" width="30" height="30"><rect width="30" height="30" fill="#f00075" data-name="長方形 2836" rx="15"/><path fill="#fff" d="M15 7.621c2.4 0 2.687.009 3.637.052a4.981 4.981 0 0 1 1.671.31 2.977 2.977 0 0 1 1.711 1.709 4.977 4.977 0 0 1 .31 1.671c.044.949.053 1.234.053 3.637s-.009 2.687-.053 3.636a4.977 4.977 0 0 1-.31 1.671 2.977 2.977 0 0 1-1.708 1.708 4.982 4.982 0 0 1-1.671.31c-.949.043-1.234.052-3.637.052s-2.688-.009-3.638-.052a4.989 4.989 0 0 1-1.671-.31 2.977 2.977 0 0 1-1.708-1.708 5 5 0 0 1-.31-1.671c-.043-.949-.052-1.234-.052-3.636s.009-2.688.052-3.637a5 5 0 0 1 .31-1.671 2.977 2.977 0 0 1 1.708-1.708 4.987 4.987 0 0 1 1.671-.31c.949-.043 1.234-.052 3.638-.052m0-1.621c-2.445 0-2.751.01-3.711.054a6.6 6.6 0 0 0-2.185.419 4.6 4.6 0 0 0-2.633 2.632 6.617 6.617 0 0 0-.418 2.185c-.044.96-.054 1.266-.054 3.711s.01 2.75.054 3.71a6.617 6.617 0 0 0 .418 2.185 4.608 4.608 0 0 0 2.633 2.633 6.607 6.607 0 0 0 2.185.418c.959.044 1.266.055 3.711.055s2.75-.011 3.711-.055a6.606 6.606 0 0 0 2.184-.418 4.6 4.6 0 0 0 2.633-2.633 6.615 6.615 0 0 0 .418-2.185c.044-.96.054-1.266.054-3.71s-.01-2.751-.054-3.711a6.615 6.615 0 0 0-.418-2.185 4.6 4.6 0 0 0-2.633-2.632 6.6 6.6 0 0 0-2.184-.419c-.96-.044-1.267-.054-3.711-.054Z" data-name="パス 452"/><path fill="#fff" d="M15.001 10.773A4.226 4.226 0 1 0 19.227 15a4.227 4.227 0 0 0-4.226-4.227Zm0 6.97A2.743 2.743 0 1 1 17.744 15a2.743 2.743 0 0 1-2.743 2.743Z" data-name="パス 453"/><circle cx="1.178" cy="1.178" r="1.178" fill="#fff" data-name="楕円形 3" transform="translate(18.568 9.077)"/></svg>