<svg xmlns="http://www.w3.org/2000/svg" width="30" height="30"><path fill="#1877f2" d="M30 15a15 15 0 1 0-17.344 14.818V19.336H8.848V15h3.809v-3.3c0-3.759 2.239-5.836 5.666-5.836a23.061 23.061 0 0 1 3.358.293v3.691h-1.893a2.168 2.168 0 0 0-2.445 2.342V15H21.5l-.665 4.336h-3.5v10.482A15 15 0 0 0 30 15Z" data-name="パス 457"/><path fill="#fff" d="m20.839 19.341.665-4.336h-4.16v-2.814a2.168 2.168 0 0 1 2.445-2.342h1.891V6.158a23.066 23.066 0 0 0-3.358-.293c-3.426 0-5.666 2.077-5.666 5.836v3.3H8.848v4.34h3.809v10.482a15.165 15.165 0 0 0 4.687 0V19.341Z" data-name="パス 458"/></svg>