<svg xmlns="http://www.w3.org/2000/svg" width="30" height="30"><circle cx="15" cy="15" r="15" fill="#00b900" data-name="楕円形 12"/><g data-name="TYPE A"><g data-name="グループ 1363"><path fill="#fff" d="M24.977 14.099c0-4.465-4.476-8.1-9.977-8.1s-9.977 3.632-9.977 8.1c0 4 3.549 7.354 8.344 7.988.325.07.767.214.879.492a2.049 2.049 0 0 1 .032.9s-.117.7-.142.854c-.044.252-.2.987.864.538a32.221 32.221 0 0 0 7.839-5.793 7.2 7.2 0 0 0 2.138-4.982" data-name="パス 501"/><g fill="#00b900" data-name="グループ 1362"><path d="M12.972 11.936h-.7a.194.194 0 0 0-.194.194v4.348a.194.194 0 0 0 .194.194h.7a.194.194 0 0 0 .194-.194v-4.342a.194.194 0 0 0-.194-.194" data-name="パス 502"/><path d="M17.789 11.936h-.7a.194.194 0 0 0-.194.194v2.583l-1.992-2.69a.192.192 0 0 0-.015-.02l-.012-.012-.01-.009h-.005l-.01-.007h-.006l-.01-.006h-.788a.194.194 0 0 0-.194.194v4.348a.194.194 0 0 0 .194.194h.7a.194.194 0 0 0 .194-.194v-2.582l1.995 2.694a.194.194 0 0 0 .049.048l.012.007h.043a.19.19 0 0 0 .05.007h.7a.194.194 0 0 0 .194-.194v-4.355a.194.194 0 0 0-.194-.194" data-name="パス 503"/><path d="M11.285 15.588h-1.9v-3.452a.194.194 0 0 0-.194-.194h-.7a.2.2 0 0 0-.195.194v4.347a.194.194 0 0 0 .055.134.193.193 0 0 0 .134.054h2.8a.194.194 0 0 0 .194-.194v-.7a.194.194 0 0 0-.194-.194" data-name="パス 504"/><path d="M21.654 13.03a.194.194 0 0 0 .194-.195v-.7a.194.194 0 0 0-.194-.194h-2.8a.193.193 0 0 0-.135.055.2.2 0 0 0-.054.134v4.347a.193.193 0 0 0 .054.134.194.194 0 0 0 .134.054h2.8a.194.194 0 0 0 .194-.194v-.7a.194.194 0 0 0-.194-.194h-1.9v-.735h1.9a.194.194 0 0 0 .194-.194v-.7a.194.194 0 0 0-.194-.194h-1.9v-.735Z" data-name="パス 505"/></g></g></g></svg>