<svg xmlns="http://www.w3.org/2000/svg" width="136.838" height="40" viewBox="0 0 136.838 40">
  <g id="グループ_10566" data-name="グループ 10566" transform="translate(-20 -120)">
    <g id="a" transform="translate(0 -3347)">
      <path id="パス_13205" data-name="パス 13205" d="M-45.485-8.119c.394,0,.5.143.519.412.018.2.036.448.43.448.179,0,.806-.143.806-.662,0-.233-.072-1.36-.09-1.629-.054-1.808-.054-4.117-.054-5.119,0-.412.036-.448.3-.555.107-.054.376-.2.376-.3,0-.179-1.271-1.038-1.36-1.038-.054,0-.179.143-.34.3a.673.673,0,0,1-.573.251h-2.363c-.107,0-.286-.018-.286-.2A17.455,17.455,0,0,1-47.2-17.8c.269-.5.376-.627.859-.627h2.954c.179,0,.609,0,.609-.286s-1.253-1.217-1.36-1.217c-.09,0-.752.931-.967,1a3.366,3.366,0,0,1-.609.018h-2.166c-.841,0-1.575-.018-2.452-.054-.125,0-.68-.072-.806-.072a.047.047,0,0,0-.054.054c0,.018,0,.036.072.107l.358.412c.054.072.09.125.143.125.036,0,.215-.036.251-.036a14.748,14.748,0,0,1,1.557-.054c.3,0,.358.2.358.394a13.162,13.162,0,0,1-.161,1.5c-.072.43-.125.519-.573.519a.948.948,0,0,1-.394-.107,4.339,4.339,0,0,0-.859-.358c-.09,0-.125.054-.125.09,0,.09.09.358.09.43a13.717,13.717,0,0,1,.143,3.007v5.639c0,.322.054.412.412.412.054,0,.806,0,.823-.68,0-.358.107-.537.573-.537Zm-.018-4.923c.555,0,.555.125.555,1.271,0,.537,0,.77-.555.77h-3.1c-.537,0-.609-.107-.609-1.36,0-.448.018-.68.573-.68Zm0-2.506c.555,0,.555.269.555.788,0,1.092,0,1.253-.555,1.253h-3.15c-.555,0-.555-.269-.555-.788,0-1.11,0-1.253.555-1.253Zm-3.079,6.963c-.555,0-.573-.215-.573-1.4,0-.269.054-.555.555-.555h3.115c.537,0,.537.286.537.77,0,.985,0,1.181-.537,1.181Zm-9.38-11.223c-.018.018.072.483.089.609.161,1.217.215,4.207.215,5.549,0,4.278,0,6-1.307,8.878a2.368,2.368,0,0,0-.268.519c0,.036.036.054.072.054a.237.237,0,0,0,.179-.107c2.417-2.989,2.417-4.636,2.417-13.908a.824.824,0,0,1,.161-.591c.2-.2.215-.215.215-.3C-56.189-19.36-57.836-19.933-57.961-19.808Zm2.417,1.79a2.062,2.062,0,0,0,.125.465,1.347,1.347,0,0,1,.036.412c0,.125.054,4.224.054,5.03,0,.823-.018,1.754-.036,2.56-.018.286-.09,1.629-.09,1.933,0,.161,0,.43.376.43a.861.861,0,0,0,.877-.68c.018-.269,0-4.923,0-5.853,0-.358,0-3.168.072-3.294a1.779,1.779,0,0,0,.269-.519.189.189,0,0,0-.09-.161c-.054-.036-1.4-.43-1.432-.43C-55.437-18.125-55.545-18.107-55.545-18.018Zm2.363-1.772c0,.036.107.233.161.394a1.774,1.774,0,0,1,.09.448c.018.483.036,8.27.036,8.914,0,.519-.036,3.133-.036,3.741,0,.734.036,1.02.376,1.02.931,0,.931-.68.931-.913,0-.9-.107-5.227-.107-6.193,0-.823-.036-4.8-.036-5.71a2.008,2.008,0,0,1,.125-.985c.018-.036.2-.215.2-.268,0-.286-1.522-.555-1.575-.555C-53.128-19.9-53.182-19.844-53.182-19.79Zm4.529,12.351c-.161.34-.179.412-.286.519a12.973,12.973,0,0,1-3.777,2.613,4.078,4.078,0,0,0-.68.322c0,.072.09.09.125.09A15.308,15.308,0,0,0-50.1-4.915c.394-.179,2.059-1.056,2.452-1.271.448-.143.5-.161.5-.322,0-.107-.054-.143-.161-.215a7.607,7.607,0,0,0-1.235-.752C-48.6-7.475-48.635-7.475-48.653-7.439Zm1.951.107A21.561,21.561,0,0,1-44.052-4.61a.755.755,0,0,0,.555.34c.376,0,.555-.537.555-.859a1.632,1.632,0,0,0-1.038-1.325A19.808,19.808,0,0,0-46.72-7.51c-.054,0-.09.018-.09.072C-46.809-7.4-46.755-7.367-46.7-7.331Zm20.729-10.794c.573,0,.949,0,.949-.233,0-.322-1.325-1.575-1.539-1.575-.179,0-.215.054-.841,1.038-.2.3-.394.3-1.146.3h-9.04c-.841,0-1.593-.036-2.452-.072-.125,0-.68-.054-.806-.054-.036,0-.054,0-.054.036s0,.036.072.125l.358.412c.054.072.09.107.143.107a3.215,3.215,0,0,0,.394-.036c.161-.018.68-.054,2.255-.054h3.24c.537,0,.537.286.537.788a23.335,23.335,0,0,1-.107,3.6c-.107.179-.34.179-.5.179h-2.381c-.841,0-1.575-.018-2.452-.054-.125-.018-.662-.072-.788-.072-.054,0-.072.018-.072.054,0,.018.018.036.072.107l.358.412c.054.072.09.125.161.125.054,0,.3-.054.376-.054.161-.018.68-.054,2.255-.054h2.4c.233,0,.5.09.5.394a11.538,11.538,0,0,1-1.468,4.3,13.743,13.743,0,0,1-4.636,4.3c-.072.036-.465.251-.465.3s.054.054.072.054a10.542,10.542,0,0,0,4.994-2.757,9.7,9.7,0,0,0,2.918-5.943c.036-.269.09-.555.322-.555.215,0,.286.286.34.591a12.625,12.625,0,0,0,2.381,5.692,9.927,9.927,0,0,0,2.81,2.775c.107,0,.2-.072.483-.412a2.3,2.3,0,0,1,1.271-.627c.573-.107.662-.125.662-.2,0-.09-.107-.125-.412-.251a10.109,10.109,0,0,1-5.245-4.189,11.131,11.131,0,0,1-1.557-3.24c0-.215.179-.233.34-.233h4.439c.591,0,.949,0,.949-.233a4.808,4.808,0,0,0-1.683-1.414c-.179,0-.233.089-.752.877-.2.3-.394.3-1.146.3h-2.6c-.2,0-.412,0-.412-.483,0-.448.089-2.918.107-3.491.018-.3.018-.591.519-.591ZM-13.926-8.012c-.5,0-.573-.233-.573-.662a1.877,1.877,0,0,1,.09-.788c.036-.09.43-.394.43-.5,0-.09-.036-.2-.573-.412-.483-.2-.519-.215-.519-.322,0-.09.107-.09.161-.09h1.969c.2,0,.43,0,.5.322.054.269.107.448.5.448a.8.8,0,0,0,.841-.859c0-.233-.036-1.325-.036-1.557,0-.519,0-.788.143-.931.322-.286.376-.34.376-.483,0-.251-1.038-1.056-1.253-1.056-.125,0-.161.036-.34.269a.725.725,0,0,1-.662.3h-4.189a2.189,2.189,0,0,1-.931-.2,2.815,2.815,0,0,0-.913-.286.149.149,0,0,0-.161.161c0,.09.107.5.125.591.036.358.054.967.054,1.343,0,.286-.018.877-.036,1.468,0,.161-.09,1-.09,1.2,0,.394.215.483.555.483a.722.722,0,0,0,.806-.734c.018-.2.054-.483.555-.483h.627c.662,0,.7.143.7,2.112,0,.34,0,.662-.519.662h-1.253c-.841,0-1.575,0-2.452-.054-.107,0-.662-.072-.788-.072a.047.047,0,0,0-.054.054c0,.018,0,.036.072.107l.34.412c.072.072.107.125.161.125a2.715,2.715,0,0,0,.376-.054c.179,0,.7-.036,2.273-.036h1.325c.519,0,.519.09.519,1.593,0,.43,0,.716-.537.716h-3.365c-.841,0-1.575,0-2.452-.054-.125,0-.68-.072-.806-.072a.047.047,0,0,0-.054.054c0,.018,0,.036.072.107l.358.412c.054.072.09.125.143.125a3.436,3.436,0,0,0,.394-.054c.161,0,.68-.036,2.255-.036h11.8c.627,0,.931,0,.931-.251,0-.286-1.307-1.45-1.5-1.45-.215,0-.823.913-.985,1.092-.107.107-.251.125-1.02.125h-3.419c-.537,0-.537-.143-.537-1.575,0-.465.036-.734.573-.734h3.6c.644,0,.967,0,.967-.269,0-.286-1.146-1.2-1.36-1.2-.179,0-.752.841-.931.931a3.116,3.116,0,0,1-.877.054Zm1.038-5.853c.555,0,.573.215.573.823,0,1.772-.09,1.79-.609,1.79h-4.189c-.161,0-.412,0-.5-.215-.072-.143-.072-.179-.072-1.754,0-.5.107-.644.573-.644Zm-6.068-5.352a3.8,3.8,0,0,0-1.36-.358c-.018,0-.143.018-.143.054a1.242,1.242,0,0,0,.215.179A4.22,4.22,0,0,1-19.135-18c.537,1,.591,1.11.877,1.11a.616.616,0,0,0,.591-.7A1.947,1.947,0,0,0-18.956-19.217Zm8.556-.143c-.179-.143-.573-.483-.788-.483-.107,0-.125.054-.215.3a6.125,6.125,0,0,1-.752,1.378c-.107.2-.806,1.11-.806,1.128s.036.018.054.018a5.476,5.476,0,0,0,1.432-.609c1.038-.591,1.038-.591,1.325-.609.251,0,.483-.018.483-.251S-10.06-19.056-10.4-19.36Zm-3.473,2.954c-.555,0-.555-.286-.555-.7a8.969,8.969,0,0,1,.09-1.772c.018-.036.269-.251.286-.269a.348.348,0,0,0,.161-.251c0-.465-1.629-.716-1.844-.716-.161,0-.179.072-.179.125,0,.089.09.537.107.627.054.34.072,1.468.072,1.862,0,.823,0,1.092-.555,1.092h-3.884c-.448,0-.5-.072-.627-.358-.269-.591-.286-.662-.358-.662a6.119,6.119,0,0,0-.233.949,3.525,3.525,0,0,1-1.074,1.9c-.322.3-.555.5-.555.949a.64.64,0,0,0,.627.662c.519,0,1.593-.662,1.772-2.56.036-.412.179-.412.483-.412H-9.845c.161,0,.34,0,.34.251a6.987,6.987,0,0,1-.555,1.307c0,.036,1-.483,1.2-.537a3.478,3.478,0,0,1,1.2-.125c.358-.018.537-.125.537-.376,0-.465-1.683-1.575-1.754-1.575-.09,0-.179.09-.3.286a.556.556,0,0,1-.555.3ZM1.146-13.883c.286,0,.483,0,.483.394a13.092,13.092,0,0,1-.286,1.808A11.754,11.754,0,0,1-4.886-4.056c-.179.09-.573.269-.573.358,0,.054.072.072.107.072a7.739,7.739,0,0,0,2.667-.967A10.662,10.662,0,0,0,2.954-12.9c.072-.376.072-.43.125-.43.036,0,.107.251.125.358A17.992,17.992,0,0,0,6-6.9,9.37,9.37,0,0,0,8.861-4.109a2.719,2.719,0,0,0,.591-.322,4.489,4.489,0,0,1,1.611-.34c.269-.018.358-.036.358-.161,0-.072,0-.072-.483-.269-5.066-1.987-7.393-7.3-7.393-8.4,0-.286.125-.286.519-.286h5.71c.591,0,.949,0,.949-.251A4.558,4.558,0,0,0,8.9-15.458c-.215,0-.286.072-.859.806-.233.3-.322.3-1.146.3H3.8c-.286,0-.609,0-.609-.412,0-.43.125-2.506.143-2.971.036-.841.036-.931.376-1.217.2-.161.286-.268.286-.412,0-.179-.161-.268-.394-.322a14.879,14.879,0,0,0-1.862-.412c-.107,0-.107.054-.107.143s.054.5.072.609c.107,1.092.107,2.041.107,2.47,0,2.524-.054,2.524-.609,2.524H-1.9c-.841,0-1.575-.036-2.452-.072-.107,0-.662-.054-.788-.054-.036,0-.072,0-.072.036s.018.036.09.125l.34.412c.054.072.09.107.161.107.054,0,.3-.036.376-.036.179-.018.68-.054,2.255-.054ZM16.2-9.139c-1.02,0-1.951-.054-2.47-.072-.125,0-.662-.054-.788-.054-.018,0-.054,0-.054.036s0,.036.072.125l.34.412c.072.072.107.107.161.107.072,0,.322-.036.376-.036.627-.054,1.844-.054,2.273-.054h3.437c.5,0,.555.251.555.555,0,.269-.036,1.539-.036,1.933-.018.913-.233.913-.537.913-.286,0-1.754-.215-1.79-.215-.054,0-.161,0-.161.09,0,.107.2.179.412.269.752.322,1.307.555,1.45,1.038.072.215.09.322.34.322a1.3,1.3,0,0,0,1.45-1.038,25.273,25.273,0,0,0,.089-2.81c0-.913,0-1.056.519-1.056h5.71c.591,0,.949,0,.949-.233A3.385,3.385,0,0,0,26.851-10.2c-.34,0-.394.143-.734.752-.161.286-.412.3-1.146.3h-3.1c-.179,0-.573,0-.573-.483,0-1.074.036-1.092.269-1.235a14.39,14.39,0,0,1,2.971-1.432c.537-.125.7-.161.7-.43A2.579,2.579,0,0,0,24.112-13.9c-.161,0-.269.072-.448.286-.269.3-.34.3-1.146.3H18.474c-1.02,0-1.951-.036-2.47-.072-.125,0-.662-.054-.788-.054-.018,0-.054,0-.054.036s0,.036.072.125l.358.412c.054.072.09.107.143.107.072,0,.322-.036.394-.036.609-.054,1.826-.054,2.255-.054h4.207c.251,0,.34,0,.34.125A4.482,4.482,0,0,1,21.176-11.2c-.161,0-.913-.233-1.074-.233-.2,0-.2.233-.2.286,0,.072.072.43.125.7a6.637,6.637,0,0,1,.054.841c0,.465-.34.465-.555.465Zm3.419-10.919c-.054.054.072.3.09.358a9.862,9.862,0,0,1,.609,2.023c.072.376.179,1.056.734,1.056.34,0,.662-.376.662-.913A3.085,3.085,0,0,0,19.619-20.058Zm-4.565.573c-.018.036.036.125.054.161a6.68,6.68,0,0,1,1.038,1.647c.537,1.146.609,1.289,1.056,1.289a.631.631,0,0,0,.609-.68c0-1.611-2.238-2.452-2.6-2.452C15.18-19.521,15.072-19.521,15.055-19.485Zm10.15-.268a.815.815,0,0,0-.34-.143c-.107,0-.125.054-.179.394a9.559,9.559,0,0,1-.913,2.345c-.072.143-.7,1.289-.7,1.307a.077.077,0,0,0,.072.072,9.334,9.334,0,0,0,1.987-1.683c.7-.716.788-.806,1.092-.877.322-.09.394-.107.394-.269C26.618-18.895,25.669-19.468,25.2-19.754ZM15.019-15.512c-.179,0-.412,0-.519-.251-.2-.465-.34-.788-.5-.788-.09,0-.125.143-.143.2a2.682,2.682,0,0,1-.519,1.432c-.555.77-.644.9-.644,1.271a.68.68,0,0,0,.662.7c.716,0,.931-.913,1.164-1.736.09-.358.251-.358.573-.358H25.705c.251,0,.483.018.483.251,0,.161-.609,1.2-.609,1.4a.077.077,0,0,0,.072.072c.09,0,.179-.072.322-.179a3.041,3.041,0,0,1,1.88-.9c.072,0,.573.09.627.09.125,0,.358-.09.358-.286,0-.412-1.325-1.539-1.7-1.539-.2,0-.233.054-.43.322-.233.3-.448.3-1.146.3Z" transform="translate(128 3494.896)" fill="#333"/>
      <path id="パス_13208" data-name="パス 13208" d="M-36.61-6.25q.02,0,.02.06t-.02.06a1.4,1.4,0,0,0-.48.06.346.346,0,0,0-.2.2,1.339,1.339,0,0,0-.055.445V.28a2.48,2.48,0,0,1-.46,1.575,1.591,1.591,0,0,1-1.33.585,1.054,1.054,0,0,1-.535-.115.352.352,0,0,1-.195-.315.324.324,0,0,1,.09-.24.338.338,0,0,1,.25-.09.4.4,0,0,1,.26.075,1.057,1.057,0,0,1,.19.225.939.939,0,0,0,.16.2.3.3,0,0,0,.2.06.572.572,0,0,0,.535-.415A3.7,3.7,0,0,0-38.01.49V-5.44a1.037,1.037,0,0,0-.07-.44.4.4,0,0,0-.275-.2,2.666,2.666,0,0,0-.635-.055q-.02,0-.02-.06t.02-.06l.58.01q.46.02.72.02t.64-.02Zm5.29,5.68a.056.056,0,0,1,.055.045.048.048,0,0,1-.025.065l-1.17.55L-32.5.1q-.1,0-.19-.23a1.673,1.673,0,0,1-.09-.6V-.77a2.836,2.836,0,0,1-.78.645,1.719,1.719,0,0,1-.81.205.989.989,0,0,1-.78-.315,1.336,1.336,0,0,1-.28-.915V-2.68a1.648,1.648,0,0,0-.07-.565.239.239,0,0,0-.23-.175.793.793,0,0,0-.34.1h-.01q-.04,0-.06-.055t.02-.065l1.11-.5.04-.01a.114.114,0,0,1,.065.025.069.069,0,0,1,.035.055v2.39q0,1.16.84,1.16a1.446,1.446,0,0,0,.65-.165,2.1,2.1,0,0,0,.6-.455V-2.68a1.76,1.76,0,0,0-.065-.57.236.236,0,0,0-.235-.17.793.793,0,0,0-.34.1h-.01q-.04,0-.055-.055t.025-.065l1.11-.5.03-.01a.114.114,0,0,1,.065.025.069.069,0,0,1,.035.055v2.8a1.1,1.1,0,0,0,.08.49.281.281,0,0,0,.27.15,1.673,1.673,0,0,0,.53-.14Zm5.01.45q.03,0,.03.06t-.03.06q-.23,0-.36-.01l-.54-.01-.55.01q-.13.01-.36.01-.03,0-.03-.06t.03-.06a1.089,1.089,0,0,0,.4-.055.3.3,0,0,0,.175-.2A1.561,1.561,0,0,0-27.5-.81V-2.43a1.38,1.38,0,0,0-.225-.87.838.838,0,0,0-.695-.28,1.338,1.338,0,0,0-.625.165,2.05,2.05,0,0,0-.575.455V-.81a1.561,1.561,0,0,0,.045.44.3.3,0,0,0,.175.2A1.089,1.089,0,0,0-29-.12q.03,0,.03.06T-29,0q-.23,0-.36-.01l-.54-.01-.55.01q-.13.01-.36.01-.03,0-.03-.06t.03-.06a1.089,1.089,0,0,0,.4-.055.3.3,0,0,0,.175-.2,1.561,1.561,0,0,0,.045-.44V-2.79a1.1,1.1,0,0,0-.08-.49.281.281,0,0,0-.27-.15,1.753,1.753,0,0,0-.54.15h-.02a.056.056,0,0,1-.055-.045.048.048,0,0,1,.025-.065l1.16-.55.06-.01q.09,0,.19.23a1.491,1.491,0,0,1,.1.59,2.906,2.906,0,0,1,.755-.65,1.566,1.566,0,0,1,.775-.21,1.142,1.142,0,0,1,.86.31,1.259,1.259,0,0,1,.3.91V-.81a1.561,1.561,0,0,0,.045.44.3.3,0,0,0,.175.2A1.089,1.089,0,0,0-26.31-.12Zm3.33-.4a.064.064,0,0,1,.06.045q.02.045-.01.065a2.882,2.882,0,0,1-.665.41,1.617,1.617,0,0,1-.615.12,1.172,1.172,0,0,1-.69-.19.716.716,0,0,1-.27-.63V-3.05a1.362,1.362,0,0,0-.035-.37.211.211,0,0,0-.135-.145,1.148,1.148,0,0,0-.34-.035q-.04,0-.04-.065t.04-.065a1.035,1.035,0,0,0,.65-.215.8.8,0,0,0,.29-.545q0-.03.08-.03t.07.03v.74q.5-.01,1.39-.1.02,0,.045.075a.519.519,0,0,1,.025.165.432.432,0,0,1-.035.165q-.035.085-.075.075a6.192,6.192,0,0,0-1.35-.16v2.49a.817.817,0,0,0,.2.61.8.8,0,0,0,.585.2A1.272,1.272,0,0,0-23-.51Zm3.86-.04a.069.069,0,0,1,.055.035.053.053,0,0,1,0,.065,2.161,2.161,0,0,1-1.46.58,1.76,1.76,0,0,1-.99-.27,1.762,1.762,0,0,1-.625-.71,2.113,2.113,0,0,1-.215-.94,2.166,2.166,0,0,1,.28-1.085,2.071,2.071,0,0,1,.765-.78A2.064,2.064,0,0,1-20.24-3.95a1.164,1.164,0,0,1,.86.3,1.136,1.136,0,0,1,.3.84.569.569,0,0,1-.025.2.087.087,0,0,1-.085.06l-2.48.01q-.02.22-.02.36a2.27,2.27,0,0,0,.41,1.41,1.361,1.361,0,0,0,1.15.54,1.479,1.479,0,0,0,.515-.08,2.705,2.705,0,0,0,.485-.25Zm-1.45-3.19a.953.953,0,0,0-.71.285,1.465,1.465,0,0,0-.37.8l1.9-.04a1.187,1.187,0,0,0-.22-.775A.738.738,0,0,0-20.57-3.75Zm6.89,3.63q.03,0,.03.06t-.03.06q-.23,0-.36-.01l-.54-.01-.55.01q-.13.01-.36.01-.03,0-.03-.06t.03-.06a1.089,1.089,0,0,0,.4-.055.3.3,0,0,0,.175-.2,1.562,1.562,0,0,0,.045-.44V-2.43A1.38,1.38,0,0,0-15.1-3.3a.838.838,0,0,0-.695-.28,1.338,1.338,0,0,0-.625.165,2.05,2.05,0,0,0-.575.455V-.81a1.561,1.561,0,0,0,.045.44.3.3,0,0,0,.175.2,1.089,1.089,0,0,0,.4.055q.03,0,.03.06t-.03.06q-.23,0-.36-.01l-.54-.01-.55.01q-.13.01-.36.01-.03,0-.03-.06t.03-.06a1.089,1.089,0,0,0,.4-.055.3.3,0,0,0,.175-.2,1.561,1.561,0,0,0,.045-.44V-2.79a1.1,1.1,0,0,0-.08-.49.281.281,0,0,0-.27-.15,1.753,1.753,0,0,0-.54.15h-.02a.056.056,0,0,1-.055-.045A.048.048,0,0,1-18.5-3.39l1.16-.55.06-.01q.09,0,.19.23a1.491,1.491,0,0,1,.1.59,2.906,2.906,0,0,1,.755-.65,1.566,1.566,0,0,1,.775-.21,1.142,1.142,0,0,1,.86.31,1.259,1.259,0,0,1,.3.91V-.81a1.561,1.561,0,0,0,.045.44.3.3,0,0,0,.175.2A1.089,1.089,0,0,0-13.68-.12ZM-8.4-.57q.04,0,.055.05t-.015.07l-1.1.52a.327.327,0,0,1-.08.02q-.13,0-.22-.22a1.78,1.78,0,0,1-.1-.61,3.615,3.615,0,0,1-.775.63,1.742,1.742,0,0,1-.9.24,1.355,1.355,0,0,1-.775-.24,1.7,1.7,0,0,1-.57-.675A2.217,2.217,0,0,1-13.1-1.78a2.057,2.057,0,0,1,.35-1.21,2.215,2.215,0,0,1,.88-.75,2.446,2.446,0,0,1,1.05-.25,1.819,1.819,0,0,1,.96.26V-5.97a1.314,1.314,0,0,0-.075-.52.261.261,0,0,0-.255-.16,1.449,1.449,0,0,0-.46.14h-.02a.056.056,0,0,1-.055-.045.051.051,0,0,1,.015-.065l1.27-.62a.111.111,0,0,1,.05-.01.108.108,0,0,1,.055.025A.069.069,0,0,1-9.3-7.17V-1.1a1.174,1.174,0,0,0,.085.52.289.289,0,0,0,.275.16.98.98,0,0,0,.52-.14Zm-2.75.34a1.34,1.34,0,0,0,.67-.175,2.783,2.783,0,0,0,.62-.5V-3.1a1.909,1.909,0,0,0-.53-.51,1.3,1.3,0,0,0-.7-.18,1.218,1.218,0,0,0-.995.445A1.946,1.946,0,0,0-12.45-2.08a2.571,2.571,0,0,0,.17.97,1.528,1.528,0,0,0,.465.65A1.054,1.054,0,0,0-11.15-.23Zm5.12.36A1.859,1.859,0,0,1-7.055-.155a1.892,1.892,0,0,1-.685-.77A2.346,2.346,0,0,1-7.98-1.98a1.893,1.893,0,0,1,.315-1.105,1.952,1.952,0,0,1,.81-.68A2.407,2.407,0,0,1-5.85-3.99a1.829,1.829,0,0,1,1.03.29,1.919,1.919,0,0,1,.675.765,2.237,2.237,0,0,1,.235,1A2.008,2.008,0,0,1-4.2-.845a1.988,1.988,0,0,1-.775.72A2.232,2.232,0,0,1-6.03.13Zm.29-.19a1.01,1.01,0,0,0,.85-.39,1.962,1.962,0,0,0,.3-1.2,2.853,2.853,0,0,0-.2-1.11,1.82,1.82,0,0,0-.565-.765A1.315,1.315,0,0,0-6.18-3.8a.986.986,0,0,0-.835.39A1.83,1.83,0,0,0-7.31-2.29a3.042,3.042,0,0,0,.2,1.12,1.96,1.96,0,0,0,.56.81A1.232,1.232,0,0,0-5.74-.06ZM4.51-5.15q0-.98-.87-.98-.03,0-.03-.06t.03-.06l.43.01q.36.02.57.02.17,0,.49-.02l.42-.01q.02,0,.02.06t-.02.06q-.8,0-.8.98v2.84A2.437,2.437,0,0,1,4.11-.515,2.314,2.314,0,0,1,2.39.13,2.758,2.758,0,0,1,1.1-.16a2.073,2.073,0,0,1-.86-.825A2.491,2.491,0,0,1-.07-2.24v-3.2a1.192,1.192,0,0,0-.06-.44.352.352,0,0,0-.235-.2A2.019,2.019,0,0,0-.92-6.13q-.02,0-.02-.06t.02-.06l.49.01q.42.02.68.02.28,0,.7-.02l.48-.01q.03,0,.03.06t-.03.06a1.866,1.866,0,0,0-.55.06.366.366,0,0,0-.24.2,1.235,1.235,0,0,0-.06.445v2.83A2.684,2.684,0,0,0,1.115-.8,1.862,1.862,0,0,0,2.61-.17a1.772,1.772,0,0,0,1.4-.565A2.28,2.28,0,0,0,4.51-2.3ZM10.56-.12q.03,0,.03.06T10.56,0q-.23,0-.36-.01L9.66-.02l-.55.01Q8.98,0,8.75,0q-.03,0-.03-.06t.03-.06a1.089,1.089,0,0,0,.4-.055.3.3,0,0,0,.175-.2A1.562,1.562,0,0,0,9.37-.81V-2.43a1.38,1.38,0,0,0-.225-.87.838.838,0,0,0-.695-.28,1.338,1.338,0,0,0-.625.165,2.05,2.05,0,0,0-.575.455V-.81A1.561,1.561,0,0,0,7.3-.37a.3.3,0,0,0,.175.2,1.089,1.089,0,0,0,.4.055q.03,0,.03.06T7.87,0q-.23,0-.36-.01L6.97-.02l-.55.01Q6.29,0,6.06,0q-.03,0-.03-.06t.03-.06a1.089,1.089,0,0,0,.4-.055.3.3,0,0,0,.175-.2A1.561,1.561,0,0,0,6.68-.81V-2.79a1.1,1.1,0,0,0-.08-.49.281.281,0,0,0-.27-.15,1.753,1.753,0,0,0-.54.15H5.77a.056.056,0,0,1-.055-.045A.048.048,0,0,1,5.74-3.39L6.9-3.94l.06-.01q.09,0,.19.23a1.491,1.491,0,0,1,.1.59,2.906,2.906,0,0,1,.755-.65,1.566,1.566,0,0,1,.775-.21,1.142,1.142,0,0,1,.86.31,1.259,1.259,0,0,1,.3.91V-.81a1.561,1.561,0,0,0,.045.44.3.3,0,0,0,.175.2A1.089,1.089,0,0,0,10.56-.12Zm1.59-5a.451.451,0,0,1-.325-.11.409.409,0,0,1-.115-.31.409.409,0,0,1,.115-.31.451.451,0,0,1,.325-.11.419.419,0,0,1,.31.11.419.419,0,0,1,.11.31.419.419,0,0,1-.11.31A.419.419,0,0,1,12.15-5.12ZM11.31,0q-.02,0-.02-.06t.02-.06a1.131,1.131,0,0,0,.405-.055.316.316,0,0,0,.185-.2,1.42,1.42,0,0,0,.05-.435V-2.68a1.314,1.314,0,0,0-.075-.52.261.261,0,0,0-.255-.16,1.033,1.033,0,0,0-.45.14h-.01q-.04,0-.06-.05t.01-.07l1.3-.6.04-.01a.087.087,0,0,1,.05.025.072.072,0,0,1,.03.055q0,.07-.01.4t-.01.78V-.81a1.413,1.413,0,0,0,.05.44.317.317,0,0,0,.18.2,1.089,1.089,0,0,0,.4.055q.03,0,.03.06T13.14,0q-.23,0-.37-.01l-.54-.01-.54.01Q11.55,0,11.31,0Zm6.51-3.86q.02,0,.02.06t-.02.06a.614.614,0,0,0-.43.165,1.557,1.557,0,0,0-.34.565l-1.25,3q-.02.05-.11.05t-.11-.05l-1.4-3.02a2.307,2.307,0,0,0-.335-.57.447.447,0,0,0-.335-.14q-.03,0-.03-.06t.03-.06q.2,0,.31.01l.38.01.65-.01q.15-.01.4-.01.03,0,.03.06t-.03.06q-.6,0-.6.24a.337.337,0,0,0,.04.15L15.91-.77l.94-2.29a.926.926,0,0,0,.07-.29.311.311,0,0,0-.19-.3,1.416,1.416,0,0,0-.6-.1q-.02,0-.02-.06t.02-.06q.27,0,.41.01l.6.01.36-.01Q17.6-3.86,17.82-3.86Zm3.62,3.3a.069.069,0,0,1,.055.035.053.053,0,0,1,0,.065,2.161,2.161,0,0,1-1.46.58,1.76,1.76,0,0,1-.99-.27,1.762,1.762,0,0,1-.625-.71,2.113,2.113,0,0,1-.215-.94,2.166,2.166,0,0,1,.28-1.085,2.071,2.071,0,0,1,.765-.78A2.064,2.064,0,0,1,20.32-3.95a1.164,1.164,0,0,1,.86.3,1.136,1.136,0,0,1,.3.84.569.569,0,0,1-.025.2.087.087,0,0,1-.085.06l-2.48.01q-.02.22-.02.36a2.27,2.27,0,0,0,.41,1.41,1.361,1.361,0,0,0,1.15.54,1.479,1.479,0,0,0,.515-.08,2.7,2.7,0,0,0,.485-.25ZM19.99-3.75a.953.953,0,0,0-.71.285,1.465,1.465,0,0,0-.37.8l1.9-.04a1.187,1.187,0,0,0-.22-.775A.738.738,0,0,0,19.99-3.75Zm4.69-.2a.8.8,0,0,1,.42.12.343.343,0,0,1,.2.29.308.308,0,0,1-.085.22.321.321,0,0,1-.245.09.323.323,0,0,1-.155-.035,1.16,1.16,0,0,1-.155-.1.8.8,0,0,0-.17-.12.42.42,0,0,0-.19-.04.463.463,0,0,0-.275.11,3.678,3.678,0,0,0-.455.47V-.81a.975.975,0,0,0,.075.44.417.417,0,0,0,.275.2,2.542,2.542,0,0,0,.62.055q.04,0,.04.06T24.54,0q-.32,0-.51-.01l-.74-.01-.55.01q-.13.01-.36.01-.03,0-.03-.06t.03-.06a1.089,1.089,0,0,0,.4-.055.3.3,0,0,0,.175-.2A1.561,1.561,0,0,0,23-.81V-2.79a1.1,1.1,0,0,0-.08-.49.281.281,0,0,0-.27-.15,1.753,1.753,0,0,0-.54.15h-.02a.056.056,0,0,1-.055-.045.048.048,0,0,1,.025-.065l1.16-.55.06-.01q.09,0,.19.23a1.491,1.491,0,0,1,.1.59v.01a4.384,4.384,0,0,1,.65-.655A.789.789,0,0,1,24.68-3.95Zm1.9.7a.706.706,0,0,0,.23.555,3.38,3.38,0,0,0,.67.435,5.834,5.834,0,0,1,.545.31,1.206,1.206,0,0,1,.335.34.9.9,0,0,1,.14.51,1.124,1.124,0,0,1-.38.86,1.461,1.461,0,0,1-1.03.35,1.639,1.639,0,0,1-.96-.3.135.135,0,0,1-.06-.12l-.02-.78q0-.03.055-.035t.065.025a1.827,1.827,0,0,0,.495.76,1.054,1.054,0,0,0,.7.26.7.7,0,0,0,.5-.16.562.562,0,0,0,.15-.47.781.781,0,0,0-.235-.585,2.936,2.936,0,0,0-.675-.425,4.559,4.559,0,0,1-.525-.29,1.149,1.149,0,0,1-.33-.34.943.943,0,0,1-.135-.52.946.946,0,0,1,.405-.825,1.617,1.617,0,0,1,.955-.285,1.744,1.744,0,0,1,.73.15.137.137,0,0,1,.075.045.125.125,0,0,1,.015.065q0,.2-.01.31l-.01.42q0,.02-.06.02t-.06-.02A.6.6,0,0,0,28-3.385a1.158,1.158,0,0,0-.4-.3,1.144,1.144,0,0,0-.48-.11.557.557,0,0,0-.395.135A.527.527,0,0,0,26.58-3.25Zm3.74-1.87A.451.451,0,0,1,30-5.23a.409.409,0,0,1-.115-.31A.409.409,0,0,1,30-5.85a.451.451,0,0,1,.325-.11.419.419,0,0,1,.31.11.419.419,0,0,1,.11.31.419.419,0,0,1-.11.31A.419.419,0,0,1,30.32-5.12ZM29.48,0q-.02,0-.02-.06t.02-.06a1.131,1.131,0,0,0,.4-.055.316.316,0,0,0,.185-.2,1.42,1.42,0,0,0,.05-.435V-2.68a1.314,1.314,0,0,0-.075-.52.261.261,0,0,0-.255-.16,1.033,1.033,0,0,0-.45.14h-.01q-.04,0-.06-.05t.01-.07l1.3-.6.04-.01a.087.087,0,0,1,.05.025.072.072,0,0,1,.03.055q0,.07-.01.4t-.01.78V-.81a1.413,1.413,0,0,0,.05.44.317.317,0,0,0,.18.2,1.089,1.089,0,0,0,.4.055q.03,0,.03.06T31.31,0q-.23,0-.37-.01L30.4-.02l-.54.01Q29.72,0,29.48,0Zm5.31-.52a.064.064,0,0,1,.06.045q.02.045-.01.065a2.882,2.882,0,0,1-.665.41,1.617,1.617,0,0,1-.615.12,1.172,1.172,0,0,1-.69-.19A.716.716,0,0,1,32.6-.7V-3.05a1.362,1.362,0,0,0-.035-.37.211.211,0,0,0-.135-.145,1.148,1.148,0,0,0-.34-.035q-.04,0-.04-.065t.04-.065a1.035,1.035,0,0,0,.65-.215.8.8,0,0,0,.29-.545q0-.03.08-.03t.07.03v.74q.5-.01,1.39-.1.02,0,.045.075a.519.519,0,0,1,.025.165.432.432,0,0,1-.035.165q-.035.085-.075.075a6.192,6.192,0,0,0-1.35-.16v2.49a.817.817,0,0,0,.205.61.8.8,0,0,0,.585.2,1.272,1.272,0,0,0,.8-.28Zm4.58-3.34q.03,0,.03.06t-.03.06a.587.587,0,0,0-.43.18,1.738,1.738,0,0,0-.34.59L37.38.28A10.058,10.058,0,0,1,36.685,1.8a2.434,2.434,0,0,1-.67.78,1.378,1.378,0,0,1-.8.235.628.628,0,0,1-.365-.1.33.33,0,0,1-.145-.29.279.279,0,0,1,.09-.22.319.319,0,0,1,.22-.08.7.7,0,0,1,.22.03.751.751,0,0,1,.19.1l.115.06a.5.5,0,0,0,.235.05.647.647,0,0,0,.455-.21,2.668,2.668,0,0,0,.46-.705Q36.94.95,37.27.08L35.75-3.03a3.32,3.32,0,0,0-.35-.575.4.4,0,0,0-.31-.135q-.02,0-.02-.06t.02-.06l.34.01q.12.01.33.01l.64-.01q.14-.01.39-.01.02,0,.02.06t-.02.06q-.58,0-.58.23a.387.387,0,0,0,.05.16L37.58-.64l.8-2.3a1.286,1.286,0,0,0,.08-.38.337.337,0,0,0-.18-.325,1.344,1.344,0,0,0-.59-.1q-.02,0-.02-.06t.02-.06q.27,0,.41.01l.6.01.36-.01Q39.16-3.86,39.37-3.86Z" transform="translate(107 3503)" fill="#4f157f" style="mix-blend-mode: multiply;isolation: isolate"/>
    </g>
    <g id="abm00023162" transform="translate(20 120)">
      <path id="パス_30" data-name="パス 30" d="M10.9,23.569a13.148,13.148,0,0,0,8.684,12.367v-1.6a11.616,11.616,0,0,1,.852-21.765V35.99h1.637V12.163c.281-.049.565-.085.852-.114V10.473A13.145,13.145,0,0,0,10.9,23.569" transform="translate(-4.958 -4.762)" fill="#4f157f"/>
      <path id="パス_31" data-name="パス 31" d="M37.062,10.475v1.575q.431.043.852.116V35.992h1.637V12.57A11.616,11.616,0,0,1,40.4,34.335v1.6a13.146,13.146,0,0,0-3.341-25.464" transform="translate(-16.853 -4.763)" fill="#4f157f"/>
      <path id="パス_32" data-name="パス 32" d="M27.6,68.743l.628-.306h.063v2.18a1.107,1.107,0,0,0,.019.27.136.136,0,0,0,.074.082.673.673,0,0,0,.233.032v.071h-.972V71a.711.711,0,0,0,.237-.031.154.154,0,0,0,.074-.074,1.022,1.022,0,0,0,.021-.279V69.223a2.17,2.17,0,0,0-.019-.362.155.155,0,0,0-.049-.089.128.128,0,0,0-.086-.029.512.512,0,0,0-.2.059Z" transform="translate(-12.55 -31.121)" fill="#4f157f"/>
      <path id="パス_33" data-name="パス 33" d="M31.778,69.771a1.836,1.836,0,0,1-.394-.4.6.6,0,0,1-.088-.315.575.575,0,0,1,.194-.434.72.72,0,0,1,.516-.181.728.728,0,0,1,.5.169.507.507,0,0,1,.189.387.52.52,0,0,1-.1.295,1.488,1.488,0,0,1-.429.355,2.434,2.434,0,0,1,.444.406.68.68,0,0,1,.145.41.607.607,0,0,1-.208.464.77.77,0,0,1-.545.194.732.732,0,0,1-.573-.228.571.571,0,0,1-.05-.744,1.677,1.677,0,0,1,.4-.372m.09.072a.9.9,0,0,0-.234.29.772.772,0,0,0-.077.34.552.552,0,0,0,.135.393.436.436,0,0,0,.341.148.459.459,0,0,0,.329-.116.371.371,0,0,0,.125-.282.44.44,0,0,0-.073-.246,2.771,2.771,0,0,0-.546-.528m.209-.276a1.4,1.4,0,0,0,.29-.324.594.594,0,0,0,.06-.271.422.422,0,0,0-.111-.312.409.409,0,0,0-.306-.114.444.444,0,0,0-.318.112.344.344,0,0,0-.122.262.435.435,0,0,0,.051.2.635.635,0,0,0,.144.188Z" transform="translate(-14.218 -31.12)" fill="#4f157f"/>
      <path id="パス_34" data-name="パス 34" d="M35.294,68.98a1.013,1.013,0,0,1,.278-.4.628.628,0,0,1,.42-.141.579.579,0,0,1,.477.2.49.49,0,0,1,.125.32.818.818,0,0,1-.354.584.77.77,0,0,1,.359.266.692.692,0,0,1,.122.407.85.85,0,0,1-.213.581,1,1,0,0,1-.8.321.678.678,0,0,1-.355-.065.175.175,0,0,1-.1-.139.126.126,0,0,1,.044-.1.15.15,0,0,1,.108-.043.355.355,0,0,1,.1.015,1.135,1.135,0,0,1,.147.07.96.96,0,0,0,.158.072.532.532,0,0,0,.151.021A.454.454,0,0,0,36.3,70.8a.5.5,0,0,0,.143-.356.7.7,0,0,0-.066-.293.539.539,0,0,0-.108-.161.769.769,0,0,0-.226-.138.719.719,0,0,0-.291-.063h-.061v-.058a.775.775,0,0,0,.3-.108.54.54,0,0,0,.289-.492.428.428,0,0,0-.124-.318.415.415,0,0,0-.3-.121.579.579,0,0,0-.5.315Z" transform="translate(-16.031 -31.12)" fill="#4f157f"/>
      <path id="パス_35" data-name="パス 35" d="M39.983,69.772a1.82,1.82,0,0,1-.4-.4.627.627,0,0,1-.088-.315.575.575,0,0,1,.194-.434.829.829,0,0,1,1.019-.012.5.5,0,0,1,.19.387.52.52,0,0,1-.1.295,1.522,1.522,0,0,1-.429.355,2.378,2.378,0,0,1,.443.406.672.672,0,0,1,.145.41.61.61,0,0,1-.206.464.77.77,0,0,1-.545.194.737.737,0,0,1-.574-.228.606.606,0,0,1-.163-.4.6.6,0,0,1,.116-.34,1.623,1.623,0,0,1,.4-.372m.089.072a.9.9,0,0,0-.233.29.772.772,0,0,0-.078.34.558.558,0,0,0,.134.393.44.44,0,0,0,.342.148.461.461,0,0,0,.329-.116.37.37,0,0,0,.124-.282.44.44,0,0,0-.072-.246,2.752,2.752,0,0,0-.547-.528m.21-.276a1.369,1.369,0,0,0,.29-.323.61.61,0,0,0,.06-.271.418.418,0,0,0-.112-.312.408.408,0,0,0-.306-.114.437.437,0,0,0-.315.112.34.34,0,0,0-.122.262.446.446,0,0,0,.049.2.66.66,0,0,0,.145.188Z" transform="translate(-17.949 -31.121)" fill="#4f157f"/>
      <path id="パス_36" data-name="パス 36" d="M24.614,60.182l-.2.582-.068-.028a.752.752,0,0,0,.034-.237.392.392,0,0,0-.087-.213.557.557,0,0,0-.224-.147L23.723,60l-.748,1.861a.54.54,0,0,0-.065.3.286.286,0,0,0,.181.159l.083.035-.027.067-1.033-.416.028-.065.086.032a.264.264,0,0,0,.256,0,.586.586,0,0,0,.145-.247l.749-1.86-.293-.118a.852.852,0,0,0-.253-.073.364.364,0,0,0-.212.067.571.571,0,0,0-.184.231l-.068-.028.259-.559Z" transform="translate(-10.056 -27.003)" fill="#4f157f"/>
      <path id="パス_37" data-name="パス 37" d="M28.323,61.352a1.189,1.189,0,0,1,.8.547,1.343,1.343,0,0,1,.187,1.023,1.388,1.388,0,0,1-.558.906,1.263,1.263,0,0,1-1.794-.333,1.383,1.383,0,0,1-.176-1.049,1.335,1.335,0,0,1,.61-.923,1.263,1.263,0,0,1,.933-.17m-.063.132a.691.691,0,0,0-.6.151,1.48,1.48,0,0,0-.439.886,1.562,1.562,0,0,0,.085,1.024.68.68,0,0,0,.5.363.761.761,0,0,0,.654-.169,1.4,1.4,0,0,0,.408-.849,1.594,1.594,0,0,0-.073-1.037.713.713,0,0,0-.529-.369" transform="translate(-12.161 -27.887)" fill="#4f157f"/>
      <path id="パス_38" data-name="パス 38" d="M33.635,63.153l.958.973a1.811,1.811,0,0,0,.4.328.863.863,0,0,0,.336.1v.072l-1.249-.013v-.072a.283.283,0,0,0,.162-.036.107.107,0,0,0,.05-.084.2.2,0,0,0-.017-.085.925.925,0,0,0-.119-.139l-.9-.9-.009.846a.873.873,0,0,0,.023.263.172.172,0,0,0,.08.083.341.341,0,0,0,.176.048h.089v.073L32.5,64.6v-.072H32.6a.278.278,0,0,0,.237-.094.582.582,0,0,0,.05-.3l.017-1.7a.9.9,0,0,0-.022-.266.178.178,0,0,0-.079-.082.378.378,0,0,0-.177-.049h-.093V61.97l1.119.013v.072h-.089a.384.384,0,0,0-.176.043.17.17,0,0,0-.085.093.862.862,0,0,0-.026.255l-.008.8c.026-.024.115-.106.267-.243a5.736,5.736,0,0,0,.7-.7.261.261,0,0,0,.055-.135.1.1,0,0,0-.041-.079.208.208,0,0,0-.137-.036h-.06v-.072l.964.01v.071a.54.54,0,0,0-.155.022.855.855,0,0,0-.172.08,1.723,1.723,0,0,0-.249.195q-.043.038-.4.393Z" transform="translate(-14.779 -28.18)" fill="#4f157f"/>
      <path id="パス_39" data-name="パス 39" d="M39.813,61.271l.9-.16.013.072-.05.009a.389.389,0,0,0-.137.067.564.564,0,0,0-.152.158,1.706,1.706,0,0,0-.146.3l-.451,1.09.115.651a.517.517,0,0,0,.106.288.3.3,0,0,0,.243.039l.083-.015.013.071-1.1.194-.012-.072.09-.015a.263.263,0,0,0,.216-.139.594.594,0,0,0-.007-.288l-.108-.612-.9-.957a2.435,2.435,0,0,0-.212-.21.683.683,0,0,0-.206-.081.221.221,0,0,0-.114,0l-.013-.072,1.106-.195.013.072-.058.01a.335.335,0,0,0-.158.07.138.138,0,0,0-.052.139.586.586,0,0,0,.159.228l.686.737.368-.886a.589.589,0,0,0,.067-.286.163.163,0,0,0-.044-.09.169.169,0,0,0-.09-.052.37.37,0,0,0-.159,0Z" transform="translate(-17.275 -27.789)" fill="#4f157f"/>
      <path id="パス_40" data-name="パス 40" d="M45.038,59.88a1.2,1.2,0,0,1,.967.026,1.341,1.341,0,0,1,.712.756,1.381,1.381,0,0,1,.026,1.062,1.264,1.264,0,0,1-1.687.7,1.388,1.388,0,0,1-.718-.784,1.326,1.326,0,0,1,.01-1.1,1.254,1.254,0,0,1,.69-.653m.02.145a.691.691,0,0,0-.426.457,1.473,1.473,0,0,0,.114.981,1.562,1.562,0,0,0,.627.813.685.685,0,0,0,.616.035.767.767,0,0,0,.458-.5,1.414,1.414,0,0,0-.121-.935,1.584,1.584,0,0,0-.625-.829.708.708,0,0,0-.644-.023" transform="translate(-20.109 -27.189)" fill="#4f157f"/>
      <path id="パス_41" data-name="パス 41" d="M13.177,59.369l-.071.089-1.423-1.112.071-.089.121.093a.447.447,0,0,0,.39.112.959.959,0,0,0,.354-.332l1.27-1.624a2.328,2.328,0,0,1,.557-.541,1.2,1.2,0,0,1,.6-.186.914.914,0,0,1,.62.208.68.68,0,0,1,.272.4.425.425,0,0,1-.071.363.313.313,0,0,1-.2.134.348.348,0,0,1-.248-.072.276.276,0,0,1-.1-.162,1.057,1.057,0,0,1,.057-.4c.031-.117.017-.2-.042-.245a.194.194,0,0,0-.187-.015.653.653,0,0,0-.282.241L13.087,58.5a1.363,1.363,0,0,0-.228.358.283.283,0,0,0,.021.186.578.578,0,0,0,.177.233Z" transform="translate(-5.313 -25.364)" fill="#4f157f"/>
      <path id="パス_42" data-name="パス 42" d="M5.4,51.689l-.093.07-.887-1.2.092-.068.1.128A.428.428,0,0,0,5,50.8a.93.93,0,0,0,.4-.215l1.374-1.017a3.047,3.047,0,0,1,.865-.485,1.238,1.238,0,0,1,.777.041,1.763,1.763,0,0,1,.8.657,1.874,1.874,0,0,1,.43.983,1.29,1.29,0,0,1-.216.79,3.48,3.48,0,0,1-.775.7l-1.324.981c-.208.154-.324.284-.346.39a.44.44,0,0,0,.109.351l.094.126-.093.07L6.014,52.707l.092-.068.1.131a.424.424,0,0,0,.355.2.925.925,0,0,0,.421-.216l1.476-1.092a4.02,4.02,0,0,0,.426-.372,1.2,1.2,0,0,0,.3-.424.894.894,0,0,0,.031-.448,1.175,1.175,0,0,0-.232-.507,1.508,1.508,0,0,0-.584-.488.966.966,0,0,0-.637-.082,2.656,2.656,0,0,0-.837.47L5.549,50.826c-.211.158-.326.278-.346.364a.462.462,0,0,0,.106.372Z" transform="translate(-2.012 -22.3)" fill="#4f157f"/>
      <path id="パス_43" data-name="パス 43" d="M1.726,44.583,1.391,43.49,3.66,40.1l-2.324.711a.84.84,0,0,0-.438.224.459.459,0,0,0-.019.386l.043.141-.11.034-.429-1.4.109-.034.044.143a.427.427,0,0,0,.266.315.952.952,0,0,0,.455-.067l3.4-1.04.034.108L2.254,43.267l2.481-.758a.862.862,0,0,0,.439-.223.468.468,0,0,0,.019-.386l-.044-.144.11-.034.429,1.4-.11.034-.043-.139a.433.433,0,0,0-.266-.318.936.936,0,0,0-.455.067l-2.8.858a1.866,1.866,0,0,0-.189.349,1.015,1.015,0,0,0-.041.3.991.991,0,0,0,.053.271Z" transform="translate(-0.174 -17.967)" fill="#4f157f"/>
      <path id="パス_44" data-name="パス 44" d="M.068,30.574l.989-.025,0,.117a1.163,1.163,0,0,0-.375.086A.621.621,0,0,0,.409,31a.9.9,0,0,0-.094.42L.3,32.015l3.22.064A.866.866,0,0,0,4.01,32a.461.461,0,0,0,.137-.361l0-.146.115,0L4.23,33.287l-.115,0,0-.15a.43.43,0,0,0-.154-.383.945.945,0,0,0-.452-.075l-3.22-.066-.012.507a1.438,1.438,0,0,0,.037.421.566.566,0,0,0,.221.281.918.918,0,0,0,.451.146l0,.118L0,34.014Z" transform="translate(0 -13.891)" fill="#4f157f"/>
      <path id="パス_45" data-name="パス 45" d="M1.315,23.256l1.584.516.288-.88a.754.754,0,0,0,.045-.492.705.705,0,0,0-.423-.328l.036-.108,1.395.453-.036.109a1.671,1.671,0,0,0-.4-.039.4.4,0,0,0-.22.122.942.942,0,0,0-.18.352l-.288.882,1.322.429a1.2,1.2,0,0,0,.33.081.183.183,0,0,0,.119-.052.544.544,0,0,0,.107-.212l.221-.681a1.949,1.949,0,0,0,.114-.509.772.772,0,0,0-.09-.356,2.374,2.374,0,0,0-.43-.557l.038-.117.893.674L4.732,25.633,4.623,25.6l.046-.143a.6.6,0,0,0,.02-.291.263.263,0,0,0-.1-.174,1.4,1.4,0,0,0-.376-.16l-2.6-.849a.911.911,0,0,0-.494-.075.484.484,0,0,0-.234.315l-.046.141-.109-.035,1.006-3.088.892.241-.037.115a1.458,1.458,0,0,0-.48,0,.509.509,0,0,0-.253.165,1.462,1.462,0,0,0-.18.4Z" transform="translate(-0.33 -9.658)" fill="#4f157f"/>
      <path id="パス_46" data-name="パス 46" d="M4.173,14.429l.676-.923L8.922,13.3,6.961,11.86a.827.827,0,0,0-.443-.216.467.467,0,0,0-.32.216l-.086.118L6.02,11.91l.867-1.183.093.067-.088.121a.427.427,0,0,0-.094.4.933.933,0,0,0,.325.323l2.866,2.1-.066.09-4.381.234L7.635,15.6a.865.865,0,0,0,.441.219A.467.467,0,0,0,8.4,15.6l.089-.119.093.067L7.71,16.733l-.093-.068.086-.117a.433.433,0,0,0,.1-.4.961.961,0,0,0-.326-.323L5.11,14.087a1.9,1.9,0,0,0-.393.057,1.037,1.037,0,0,0-.267.15.96.96,0,0,0-.184.2Z" transform="translate(-1.898 -4.878)" fill="#4f157f"/>
      <path id="パス_47" data-name="パス 47" d="M14.238,10.224l-.065-.1.131-.089a.422.422,0,0,0,.216-.356.975.975,0,0,0-.2-.417L12.773,7.021c-.148-.218-.266-.336-.351-.359a.462.462,0,0,0-.375.092l-.13.09-.066-.094,1.415-.972a3.705,3.705,0,0,1,1.307-.637,1.686,1.686,0,0,1,1.057.14,2.2,2.2,0,0,1,.9.783,2.111,2.111,0,0,1,.392,1.514A2.355,2.355,0,0,1,15.79,9.157Zm.82-.932a3.111,3.111,0,0,0,.595-.3,1.569,1.569,0,0,0,.7-1.095,1.922,1.922,0,0,0-.386-1.4,1.924,1.924,0,0,0-1.171-.865A1.6,1.6,0,0,0,13.5,5.9a2.62,2.62,0,0,0-.474.435Z" transform="translate(-5.389 -2.324)" fill="#4f157f"/>
      <path id="パス_48" data-name="パス 48" d="M24.514.683a1.91,1.91,0,0,1,1.535.232,2.151,2.151,0,0,1,.986,1.345,2.217,2.217,0,0,1-.169,1.7,2.028,2.028,0,0,1-2.825.778,2.215,2.215,0,0,1-.989-1.391,2.133,2.133,0,0,1,.234-1.76,2.022,2.022,0,0,1,1.228-.9m0,.234a1.117,1.117,0,0,0-.768.641,2.372,2.372,0,0,0-.013,1.587,2.518,2.518,0,0,0,.839,1.42,1.1,1.1,0,0,0,.975.174,1.223,1.223,0,0,0,.826-.7,2.246,2.246,0,0,0-.007-1.51,2.541,2.541,0,0,0-.83-1.447A1.149,1.149,0,0,0,24.516.917" transform="translate(-10.44 -0.279)" fill="#4f157f"/>
      <path id="パス_49" data-name="パス 49" d="M43.829.973l.032-.111,1.43.429-.034.111-.152-.046a.429.429,0,0,0-.426.089.945.945,0,0,0-.191.41L44,3.492a3.056,3.056,0,0,1-.4.907,1.234,1.234,0,0,1-.646.432,1.768,1.768,0,0,1-1.032-.049,1.885,1.885,0,0,1-.935-.53,1.289,1.289,0,0,1-.3-.762,3.56,3.56,0,0,1,.2-1.023L41.358.89A.829.829,0,0,0,41.4.371a.446.446,0,0,0-.3-.216L40.953.11,40.986,0l1.745.522L42.7.633,42.543.587a.419.419,0,0,0-.4.051.932.932,0,0,0-.209.423L41.4,2.821a3.9,3.9,0,0,0-.118.551,1.193,1.193,0,0,0,.014.522.889.889,0,0,0,.242.377,1.169,1.169,0,0,0,.489.267,1.5,1.5,0,0,0,.761.039.949.949,0,0,0,.559-.313,2.64,2.64,0,0,0,.388-.878l.49-1.635a.88.88,0,0,0,.059-.5.458.458,0,0,0-.306-.234Z" transform="translate(-18.499)" fill="#4f157f"/>
      <path id="パス_50" data-name="パス 50" d="M48.995,3.09l.954.631.406,4.058L51.7,5.753A.843.843,0,0,0,51.89,5.3a.463.463,0,0,0-.231-.308l-.123-.081.064-.1,1.223.81-.063.1-.125-.082a.426.426,0,0,0-.4-.074.929.929,0,0,0-.307.342L49.963,8.866l-.093-.06L49.425,4.44,47.993,6.6a.869.869,0,0,0-.2.451.474.474,0,0,0,.231.311l.125.081-.064.1-1.223-.808.063-.1.122.081a.434.434,0,0,0,.408.075.942.942,0,0,0,.308-.341L49.382,4.01a1.845,1.845,0,0,0-.077-.39,1.039,1.039,0,0,0-.161-.26,1.049,1.049,0,0,0-.213-.174Z" transform="translate(-21.311 -1.405)" fill="#4f157f"/>
      <path id="パス_51" data-name="パス 51" d="M54.809,13.216l-.082.08L53.465,12l.082-.08.1.108a.454.454,0,0,0,.373.163.945.945,0,0,0,.4-.281l1.948-1.9a1.378,1.378,0,0,0,.275-.324.285.285,0,0,0,.006-.186.589.589,0,0,0-.146-.256l-.1-.107.082-.08,1.262,1.292-.082.081-.107-.11a.446.446,0,0,0-.371-.162.91.91,0,0,0-.4.279l-1.949,1.9a1.418,1.418,0,0,0-.274.323.28.28,0,0,0,0,.189.574.574,0,0,0,.144.253Z" transform="translate(-24.312 -4.12)" fill="#4f157f"/>
      <path id="パス_52" data-name="パス 52" d="M62.893,16.4l-.1.061a.689.689,0,0,0-.3-.212,1.278,1.278,0,0,0-.55,0l-3.821.656-.061-.1,2.242-3.267a1.9,1.9,0,0,0,.2-.325.554.554,0,0,0,.027-.242.9.9,0,0,0-.1-.3l.1-.063.914,1.461-.1.06a.8.8,0,0,0-.286-.269.23.23,0,0,0-.2.024,1.393,1.393,0,0,0-.335.378l-1.525,2.22,2.595-.451a1.7,1.7,0,0,0,.5-.143.236.236,0,0,0,.1-.167.586.586,0,0,0-.063-.32c0-.01-.01-.027-.021-.05l.1-.061Z" transform="translate(-26.403 -5.737)" fill="#4f157f"/>
      <path id="パス_53" data-name="パス 53" d="M64.424,22.691l-1.6.471.262.89a.763.763,0,0,0,.24.43.7.7,0,0,0,.535.03l.032.11-1.408.415-.032-.109a1.67,1.67,0,0,0,.355-.195.392.392,0,0,0,.111-.226.927.927,0,0,0-.051-.393l-.262-.888-1.332.394a1.411,1.411,0,0,0-.32.118.208.208,0,0,0-.067.111.526.526,0,0,0,.032.237l.2.685a1.89,1.89,0,0,0,.195.485.781.781,0,0,0,.276.242,2.348,2.348,0,0,0,.669.215l.035.119-1.117-.05-.918-3.116.11-.032.043.143a.6.6,0,0,0,.148.252.264.264,0,0,0,.181.087,1.406,1.406,0,0,0,.4-.081l2.626-.775a.911.911,0,0,0,.451-.217.483.483,0,0,0,.014-.392l-.043-.144.111-.034.918,3.117-.872.3-.035-.115a1.455,1.455,0,0,0,.4-.269.489.489,0,0,0,.115-.279,1.383,1.383,0,0,0-.079-.432Z" transform="translate(-27.403 -9.765)" fill="#4f157f"/>
      <path id="パス_54" data-name="パス 54" d="M62.3,34.177l-.029-1.125,1.933-1.477c-.007-.106-.012-.191-.014-.259v-.087c0-.03,0-.063,0-.1l-1.224.032a.854.854,0,0,0-.492.1.439.439,0,0,0-.128.357l0,.165-.116,0-.046-1.805.115,0,0,.157a.422.422,0,0,0,.183.379.992.992,0,0,0,.459.053l2.721-.071a.864.864,0,0,0,.492-.1.456.456,0,0,0,.128-.364l0-.159.116,0,.039,1.535a3.684,3.684,0,0,1-.072.993,1.133,1.133,0,0,1-.347.55.935.935,0,0,1-.62.239.984.984,0,0,1-.681-.235,1.436,1.436,0,0,1-.424-.775l-1.186.9a2.14,2.14,0,0,0-.539.526,1.284,1.284,0,0,0-.16.565Zm2.088-3.048c0,.039,0,.072,0,.1s0,.053,0,.072a1.372,1.372,0,0,0,.284.9.837.837,0,0,0,.674.289.865.865,0,0,0,.634-.264.879.879,0,0,0,.231-.66,2.841,2.841,0,0,0-.072-.487Z" transform="translate(-28.282 -13.585)" fill="#4f157f"/>
      <path id="パス_55" data-name="パス 55" d="M65.454,41.415l-1.422-.321.026-.112a1.8,1.8,0,0,0,.7-.049,1.046,1.046,0,0,0,.475-.313,1.139,1.139,0,0,0,.264-.509.752.752,0,0,0-.074-.565.6.6,0,0,0-.392-.3.535.535,0,0,0-.372.053,3.429,3.429,0,0,0-.808.757,6.474,6.474,0,0,1-.652.679,1.217,1.217,0,0,1-.464.237,1.052,1.052,0,0,1-.5.007,1.094,1.094,0,0,1-.724-.544,1.343,1.343,0,0,1-.126-1.009,1.9,1.9,0,0,1,.1-.33,3.637,3.637,0,0,1,.2-.365,1.779,1.779,0,0,0,.18-.352.163.163,0,0,0-.017-.13.384.384,0,0,0-.174-.108l.026-.112,1.41.319-.026.112a2.054,2.054,0,0,0-.711.063,1.042,1.042,0,0,0-.457.325,1.284,1.284,0,0,0-.282.57.872.872,0,0,0,.065.642.627.627,0,0,0,.423.327.65.65,0,0,0,.325-.014.93.93,0,0,0,.347-.195,7.291,7.291,0,0,0,.532-.558,6.429,6.429,0,0,1,.641-.644,1.28,1.28,0,0,1,.465-.25.97.97,0,0,1,.493-.009,1.035,1.035,0,0,1,.685.511,1.239,1.239,0,0,1,.125.936,1.782,1.782,0,0,1-.318.659.726.726,0,0,0-.13.223.183.183,0,0,0,.017.139.388.388,0,0,0,.172.123Z" transform="translate(-27.893 -17.29)" fill="#4f157f"/>
      <path id="パス_56" data-name="パス 56" d="M59.578,45.287l-.106-.045.712-1.659.106.045-.058.138a.45.45,0,0,0-.01.407.952.952,0,0,0,.41.257l2.5,1.076a1.454,1.454,0,0,0,.4.129.282.282,0,0,0,.173-.065.582.582,0,0,0,.182-.233l.058-.137.106.045-.712,1.66-.106-.046.06-.14a.451.451,0,0,0,.008-.406.924.924,0,0,0-.409-.26l-2.5-1.075a1.4,1.4,0,0,0-.4-.129.272.272,0,0,0-.175.067.56.56,0,0,0-.18.23Z" transform="translate(-27.044 -19.818)" fill="#4f157f"/>
      <path id="パス_57" data-name="パス 57" d="M59.7,52.855l-.843-.518.067-.1a1.247,1.247,0,0,0,.361.132.626.626,0,0,0,.364-.063.886.886,0,0,0,.307-.3l.335-.489L57.635,49.7a.882.882,0,0,0-.449-.2.463.463,0,0,0-.312.228l-.082.119-.1-.064L57.7,48.307l.1.066-.083.122a.428.428,0,0,0-.08.406.944.944,0,0,0,.336.311l2.66,1.816.285-.42a1.4,1.4,0,0,0,.2-.371.578.578,0,0,0-.031-.355.925.925,0,0,0-.3-.37l.066-.1.788.6Z" transform="translate(-25.782 -21.967)" fill="#4f157f"/>
      <path id="パス_58" data-name="パス 58" d="M54.342,58.28l-1.121.948-.075-.086.063-.052a.649.649,0,0,0,.133-.208.911.911,0,0,0,.083-.341,2.837,2.837,0,0,0-.042-.533l-.259-1.88-.684-.8c-.167-.2-.293-.3-.379-.314a.477.477,0,0,0-.369.141l-.1.088-.074-.087L52.88,54l.074.087-.114.1a.427.427,0,0,0-.186.369.944.944,0,0,0,.241.391l.645.761,2.023.6a3.972,3.972,0,0,0,.464.116,1.109,1.109,0,0,0,.351-.053.413.413,0,0,0,.158-.093l.075.088-1.376,1.165-.074-.089.071-.059a.523.523,0,0,0,.161-.227.219.219,0,0,0-.038-.234.969.969,0,0,0-.406-.186L53.4,56.259l.209,1.526a.941.941,0,0,0,.139.452.281.281,0,0,0,.134.089.3.3,0,0,0,.168,0,.657.657,0,0,0,.217-.133Z" transform="translate(-23.425 -24.554)" fill="#4f157f"/>
    </g>
  </g>
</svg>
