<svg xmlns="http://www.w3.org/2000/svg" width="118.08" height="118" viewBox="0 0 118.08 118">
  <g id="グループ_10563" data-name="グループ 10563" transform="translate(-628.768 -4494)">
    <g id="abm00023162" transform="translate(658 4494)">
      <path id="パス_30" data-name="パス 30" d="M10.9,31.058A20.665,20.665,0,0,0,24.553,50.5V47.977a18.258,18.258,0,0,1,1.34-34.21V50.58h2.573V13.13c.441-.077.888-.133,1.34-.179V10.473A20.661,20.661,0,0,0,10.9,31.058" transform="translate(-1.559 -1.497)" fill="#4f157f"/>
      <path id="パス_31" data-name="パス 31" d="M37.062,10.475V12.95q.678.068,1.34.182v37.45h2.573V13.768a18.258,18.258,0,0,1,1.338,34.21V50.5a20.662,20.662,0,0,0-5.251-40.023" transform="translate(-5.298 -1.497)" fill="#4f157f"/>
      <path id="パス_32" data-name="パス 32" d="M27.6,68.918l.988-.481h.1v3.426a1.74,1.74,0,0,0,.029.425.213.213,0,0,0,.117.129,1.058,1.058,0,0,0,.366.051v.111H27.669v-.111a1.117,1.117,0,0,0,.372-.049.241.241,0,0,0,.117-.117,1.606,1.606,0,0,0,.033-.439V69.673a3.411,3.411,0,0,0-.029-.569.243.243,0,0,0-.077-.14.2.2,0,0,0-.135-.046.805.805,0,0,0-.308.093Z" transform="translate(-3.945 -9.784)" fill="#4f157f"/>
      <path id="パス_33" data-name="パス 33" d="M32.072,70.534a2.886,2.886,0,0,1-.62-.636.95.95,0,0,1-.139-.5.9.9,0,0,1,.3-.682,1.132,1.132,0,0,1,.811-.284,1.145,1.145,0,0,1,.791.266.8.8,0,0,1,.3.609.817.817,0,0,1-.16.463,2.339,2.339,0,0,1-.674.558,3.826,3.826,0,0,1,.7.638,1.068,1.068,0,0,1,.228.645.954.954,0,0,1-.326.729,1.21,1.21,0,0,1-.857.3,1.151,1.151,0,0,1-.9-.359.9.9,0,0,1-.078-1.17,2.636,2.636,0,0,1,.625-.585m.142.113a1.416,1.416,0,0,0-.368.456,1.213,1.213,0,0,0-.12.534.868.868,0,0,0,.211.618.686.686,0,0,0,.536.233.721.721,0,0,0,.518-.182.583.583,0,0,0,.2-.443.692.692,0,0,0-.115-.386,4.356,4.356,0,0,0-.858-.829m.328-.434A2.195,2.195,0,0,0,33,69.705a.934.934,0,0,0,.095-.426.664.664,0,0,0-.175-.49.643.643,0,0,0-.481-.179.7.7,0,0,0-.5.177.54.54,0,0,0-.191.412.683.683,0,0,0,.08.312,1,1,0,0,0,.226.3Z" transform="translate(-4.47 -9.783)" fill="#4f157f"/>
      <path id="パス_34" data-name="パス 34" d="M35.317,69.292a1.593,1.593,0,0,1,.437-.632.987.987,0,0,1,.66-.222.91.91,0,0,1,.749.317.771.771,0,0,1,.2.5,1.285,1.285,0,0,1-.556.919,1.21,1.21,0,0,1,.565.417,1.087,1.087,0,0,1,.191.64,1.336,1.336,0,0,1-.335.913,1.577,1.577,0,0,1-1.265.5,1.066,1.066,0,0,1-.558-.1.275.275,0,0,1-.149-.219.2.2,0,0,1,.069-.151.235.235,0,0,1,.169-.067.557.557,0,0,1,.153.024,1.784,1.784,0,0,1,.231.109,1.51,1.51,0,0,0,.248.113.836.836,0,0,0,.237.033.714.714,0,0,0,.532-.237.788.788,0,0,0,.224-.56,1.1,1.1,0,0,0-.1-.461.847.847,0,0,0-.17-.253,1.209,1.209,0,0,0-.355-.217,1.13,1.13,0,0,0-.457-.1h-.1v-.091a1.219,1.219,0,0,0,.476-.169.848.848,0,0,0,.454-.773.673.673,0,0,0-.2-.5.653.653,0,0,0-.477-.19.91.91,0,0,0-.778.5Z" transform="translate(-5.04 -9.783)" fill="#4f157f"/>
      <path id="パス_35" data-name="パス 35" d="M40.276,70.535a2.861,2.861,0,0,1-.621-.636.985.985,0,0,1-.139-.5.9.9,0,0,1,.3-.682,1.3,1.3,0,0,1,1.6-.018.794.794,0,0,1,.3.609.817.817,0,0,1-.16.463,2.393,2.393,0,0,1-.674.558,3.737,3.737,0,0,1,.7.638,1.056,1.056,0,0,1,.228.645.958.958,0,0,1-.324.729,1.21,1.21,0,0,1-.857.3,1.158,1.158,0,0,1-.9-.359.953.953,0,0,1-.257-.636.942.942,0,0,1,.182-.534,2.551,2.551,0,0,1,.623-.585m.14.113a1.409,1.409,0,0,0-.366.456,1.214,1.214,0,0,0-.122.534.876.876,0,0,0,.211.618.692.692,0,0,0,.538.233.724.724,0,0,0,.518-.182.581.581,0,0,0,.195-.443.691.691,0,0,0-.113-.386,4.326,4.326,0,0,0-.86-.829m.33-.434a2.152,2.152,0,0,0,.456-.508.959.959,0,0,0,.095-.426.657.657,0,0,0-.177-.49.641.641,0,0,0-.481-.179.686.686,0,0,0-.5.177.534.534,0,0,0-.191.412.7.7,0,0,0,.077.312,1.038,1.038,0,0,0,.228.3Z" transform="translate(-5.643 -9.784)" fill="#4f157f"/>
      <path id="パス_36" data-name="パス 36" d="M26.044,60.638l-.319.915-.108-.044a1.182,1.182,0,0,0,.053-.372.616.616,0,0,0-.137-.335.875.875,0,0,0-.352-.231l-.539-.217-1.176,2.925a.848.848,0,0,0-.1.472.449.449,0,0,0,.284.25l.131.055-.042.106-1.624-.654.044-.1.135.051a.415.415,0,0,0,.4-.007.921.921,0,0,0,.228-.388L24.1,60.137l-.461-.186a1.339,1.339,0,0,0-.4-.115.572.572,0,0,0-.334.106.9.9,0,0,0-.29.363l-.108-.044.406-.878Z" transform="translate(-3.161 -8.489)" fill="#4f157f"/>
      <path id="パス_37" data-name="パス 37" d="M29.226,61.367a1.869,1.869,0,0,1,1.254.86,2.111,2.111,0,0,1,.293,1.607,2.182,2.182,0,0,1-.877,1.423,1.986,1.986,0,0,1-2.819-.523,2.174,2.174,0,0,1-.277-1.649,2.1,2.1,0,0,1,.959-1.451,1.985,1.985,0,0,1,1.467-.268m-.1.208a1.085,1.085,0,0,0-.95.237,2.326,2.326,0,0,0-.691,1.392,2.455,2.455,0,0,0,.133,1.609,1.068,1.068,0,0,0,.784.57,1.2,1.2,0,0,0,1.028-.266,2.2,2.2,0,0,0,.642-1.334,2.506,2.506,0,0,0-.115-1.629,1.121,1.121,0,0,0-.831-.58" transform="translate(-3.823 -8.767)" fill="#4f157f"/>
      <path id="パス_38" data-name="パス 38" d="M34.284,63.829l1.505,1.529a2.847,2.847,0,0,0,.634.516,1.356,1.356,0,0,0,.529.159l0,.113-1.963-.02,0-.113a.444.444,0,0,0,.255-.056.169.169,0,0,0,.078-.131.31.31,0,0,0-.027-.133,1.454,1.454,0,0,0-.188-.219L33.7,64.051l-.015,1.33a1.373,1.373,0,0,0,.036.414.27.27,0,0,0,.126.131.536.536,0,0,0,.277.075l.14,0,0,.115L32.5,66.1v-.113l.148,0a.436.436,0,0,0,.372-.148.914.914,0,0,0,.078-.467l.027-2.664a1.414,1.414,0,0,0-.035-.417.279.279,0,0,0-.124-.129.594.594,0,0,0-.279-.077l-.146,0V61.97l1.759.02V62.1l-.14,0a.6.6,0,0,0-.277.067.267.267,0,0,0-.133.146,1.355,1.355,0,0,0-.04.4L33.7,63.978c.04-.038.18-.166.419-.383a9.015,9.015,0,0,0,1.1-1.093.41.41,0,0,0,.086-.211.161.161,0,0,0-.064-.124.327.327,0,0,0-.215-.056h-.095l0-.113,1.514.016v.111a.849.849,0,0,0-.244.035,1.344,1.344,0,0,0-.27.126,2.707,2.707,0,0,0-.392.306q-.068.06-.625.618Z" transform="translate(-4.646 -8.859)" fill="#4f157f"/>
      <path id="パス_39" data-name="パス 39" d="M40.857,61.362l1.418-.251.02.113-.078.015a.612.612,0,0,0-.215.106.887.887,0,0,0-.239.248,2.681,2.681,0,0,0-.23.474l-.709,1.713L41,64.8a.813.813,0,0,0,.166.452.469.469,0,0,0,.383.062l.131-.024.02.111-1.728.3-.018-.113.142-.024a.414.414,0,0,0,.339-.219.934.934,0,0,0-.011-.452l-.169-.962-1.414-1.5a3.829,3.829,0,0,0-.334-.33,1.073,1.073,0,0,0-.324-.128.347.347,0,0,0-.179,0l-.02-.113,1.739-.306.02.113-.091.016a.527.527,0,0,0-.248.109.217.217,0,0,0-.082.219.92.92,0,0,0,.25.359l1.079,1.159.578-1.392a.925.925,0,0,0,.106-.45.256.256,0,0,0-.069-.142.266.266,0,0,0-.142-.082.582.582,0,0,0-.25.005Z" transform="translate(-5.431 -8.736)" fill="#4f157f"/>
      <path id="パス_40" data-name="パス 40" d="M45.5,59.931a1.882,1.882,0,0,1,1.52.04,2.108,2.108,0,0,1,1.119,1.188,2.17,2.17,0,0,1,.04,1.669,1.986,1.986,0,0,1-2.652,1.1A2.182,2.182,0,0,1,44.4,62.694a2.084,2.084,0,0,1,.016-1.737A1.97,1.97,0,0,1,45.5,59.931m.031.228a1.085,1.085,0,0,0-.669.718,2.316,2.316,0,0,0,.179,1.542,2.455,2.455,0,0,0,.986,1.278,1.077,1.077,0,0,0,.968.055,1.206,1.206,0,0,0,.72-.784,2.223,2.223,0,0,0-.19-1.469,2.49,2.49,0,0,0-.982-1.3,1.113,1.113,0,0,0-1.011-.036" transform="translate(-6.322 -8.548)" fill="#4f157f"/>
      <path id="パス_41" data-name="パス 41" d="M14.031,61.422l-.111.14-2.236-1.748.111-.14.19.146A.7.7,0,0,0,12.6,60a1.508,1.508,0,0,0,.556-.521l2-2.553a3.66,3.66,0,0,1,.875-.851,1.882,1.882,0,0,1,.942-.292,1.437,1.437,0,0,1,.975.326,1.069,1.069,0,0,1,.428.625.669.669,0,0,1-.111.57.492.492,0,0,1-.319.211.547.547,0,0,1-.39-.113.433.433,0,0,1-.159-.255,1.661,1.661,0,0,1,.089-.625c.049-.184.027-.312-.066-.385a.306.306,0,0,0-.293-.024,1.026,1.026,0,0,0-.443.379L13.89,60.054a2.142,2.142,0,0,0-.359.563.446.446,0,0,0,.033.292.908.908,0,0,0,.279.366Z" transform="translate(-1.67 -7.974)" fill="#4f157f"/>
      <path id="パス_42" data-name="パス 42" d="M5.963,53.2l-.146.109L4.423,51.426l.144-.108.149.2a.672.672,0,0,0,.62.288,1.461,1.461,0,0,0,.627-.337l2.16-1.6a4.789,4.789,0,0,1,1.36-.762,1.945,1.945,0,0,1,1.221.064,2.771,2.771,0,0,1,1.254,1.033,2.946,2.946,0,0,1,.676,1.545,2.027,2.027,0,0,1-.339,1.241,5.469,5.469,0,0,1-1.217,1.1L9,55.632c-.326.242-.508.447-.543.612a.691.691,0,0,0,.171.552l.148.2-.146.109-1.7-2.3.144-.108.151.206a.666.666,0,0,0,.558.315,1.454,1.454,0,0,0,.662-.339l2.32-1.717a6.319,6.319,0,0,0,.669-.585,1.893,1.893,0,0,0,.472-.667,1.405,1.405,0,0,0,.049-.7,1.847,1.847,0,0,0-.364-.8,2.37,2.37,0,0,0-.919-.767,1.518,1.518,0,0,0-1-.129,4.174,4.174,0,0,0-1.316.738l-2.156,1.6c-.332.248-.512.437-.543.572A.727.727,0,0,0,5.816,53Z" transform="translate(-0.632 -7.011)" fill="#4f157f"/>
      <path id="パス_43" data-name="パス 43" d="M2.494,47.484l-.527-1.719,3.567-5.327L1.881,41.555a1.321,1.321,0,0,0-.689.352.721.721,0,0,0-.029.607l.067.222-.173.053L.383,40.584l.171-.053.069.224a.671.671,0,0,0,.417.5,1.5,1.5,0,0,0,.714-.106L7.094,39.51l.053.169L3.323,45.415l3.9-1.192a1.355,1.355,0,0,0,.691-.35.736.736,0,0,0,.029-.607l-.069-.226.173-.053.674,2.205-.173.053-.067-.219a.681.681,0,0,0-.417-.5,1.471,1.471,0,0,0-.714.106l-4.4,1.349a2.933,2.933,0,0,0-.3.549A1.6,1.6,0,0,0,2.583,47a1.558,1.558,0,0,0,.084.426Z" transform="translate(-0.055 -5.648)" fill="#4f157f"/>
      <path id="パス_44" data-name="パス 44" d="M.108,30.589l1.555-.04,0,.184a1.829,1.829,0,0,0-.589.135.975.975,0,0,0-.426.394,1.408,1.408,0,0,0-.148.66l-.018.933,5.061.1a1.361,1.361,0,0,0,.764-.117.724.724,0,0,0,.215-.567l.007-.23.18,0-.056,2.808-.18,0,.005-.235a.676.676,0,0,0-.242-.6,1.486,1.486,0,0,0-.711-.118l-5.061-.1-.018.8a2.261,2.261,0,0,0,.058.662.889.889,0,0,0,.348.441,1.442,1.442,0,0,0,.709.23l-.005.186L0,36Z" transform="translate(0 -4.367)" fill="#4f157f"/>
      <path id="パス_45" data-name="パス 45" d="M1.653,24.41l2.489.811.452-1.383a1.185,1.185,0,0,0,.071-.773A1.109,1.109,0,0,0,4,22.549l.056-.169,2.192.713-.057.171a2.626,2.626,0,0,0-.631-.062.63.63,0,0,0-.346.191,1.481,1.481,0,0,0-.282.554l-.452,1.387,2.078.674a1.891,1.891,0,0,0,.519.128.288.288,0,0,0,.188-.082.855.855,0,0,0,.168-.334l.348-1.07a3.064,3.064,0,0,0,.179-.8,1.213,1.213,0,0,0-.142-.56,3.731,3.731,0,0,0-.676-.875l.06-.184,1.4,1.059L7.024,28.146l-.171-.058.073-.224a.946.946,0,0,0,.031-.457.413.413,0,0,0-.159-.273,2.2,2.2,0,0,0-.591-.252L2.114,25.547a1.432,1.432,0,0,0-.776-.118.76.76,0,0,0-.368.5L.9,26.147l-.171-.055,1.582-4.853,1.4.379-.058.18a2.291,2.291,0,0,0-.755-.007.8.8,0,0,0-.4.259,2.3,2.3,0,0,0-.282.634Z" transform="translate(-0.104 -3.036)" fill="#4f157f"/>
      <path id="パス_46" data-name="パス 46" d="M4.173,16.546,5.235,15.1l6.4-.326L8.556,12.507a1.3,1.3,0,0,0-.7-.339.734.734,0,0,0-.5.339l-.135.186-.146-.108,1.363-1.859.146.106-.139.19a.671.671,0,0,0-.148.631,1.467,1.467,0,0,0,.51.508l4.505,3.3-.1.142-6.885.368,3.29,2.411a1.36,1.36,0,0,0,.693.344.735.735,0,0,0,.5-.341l.14-.188.146.106L9.733,20.167l-.146-.108.135-.184a.681.681,0,0,0,.151-.636,1.51,1.51,0,0,0-.512-.508L5.645,16.008a2.98,2.98,0,0,0-.618.089,1.629,1.629,0,0,0-.419.235,1.509,1.509,0,0,0-.29.321Z" transform="translate(-0.597 -1.533)" fill="#4f157f"/>
      <path id="パス_47" data-name="パス 47" d="M15.6,13.147,15.5,13l.206-.14a.663.663,0,0,0,.339-.559,1.533,1.533,0,0,0-.321-.656L13.3,8.113c-.233-.343-.417-.529-.552-.565a.727.727,0,0,0-.589.144l-.2.142-.1-.148L14.075,6.16a5.824,5.824,0,0,1,2.054-1,2.651,2.651,0,0,1,1.662.221,3.45,3.45,0,0,1,1.418,1.23,3.318,3.318,0,0,1,.616,2.38,3.7,3.7,0,0,1-1.782,2.48Zm1.288-1.465a4.89,4.89,0,0,0,.935-.477,2.467,2.467,0,0,0,1.1-1.72,3.021,3.021,0,0,0-.607-2.2,3.024,3.024,0,0,0-1.841-1.36,2.519,2.519,0,0,0-2.03.434,4.117,4.117,0,0,0-.745.683Z" transform="translate(-1.694 -0.731)" fill="#4f157f"/>
      <path id="パス_48" data-name="パス 48" d="M25.4.722a3,3,0,0,1,2.413.364A3.381,3.381,0,0,1,29.365,3.2,3.485,3.485,0,0,1,29.1,5.869a3.188,3.188,0,0,1-4.44,1.223A3.482,3.482,0,0,1,23.105,4.9a3.353,3.353,0,0,1,.368-2.767A3.179,3.179,0,0,1,25.4.722m0,.368A1.755,1.755,0,0,0,24.2,2.1a3.729,3.729,0,0,0-.02,2.495A3.958,3.958,0,0,0,25.5,6.825a1.723,1.723,0,0,0,1.533.273,1.922,1.922,0,0,0,1.3-1.1,3.53,3.53,0,0,0-.011-2.373,3.994,3.994,0,0,0-1.3-2.274,1.806,1.806,0,0,0-1.607-.257" transform="translate(-3.282 -0.088)" fill="#4f157f"/>
      <path id="パス_49" data-name="パス 49" d="M45.628,1.529l.051-.175,2.247.674-.053.175-.239-.073a.675.675,0,0,0-.669.14,1.485,1.485,0,0,0-.3.645l-.771,2.573a4.8,4.8,0,0,1-.634,1.425,1.94,1.94,0,0,1-1.015.68,2.779,2.779,0,0,1-1.622-.077,2.962,2.962,0,0,1-1.469-.833,2.025,2.025,0,0,1-.472-1.2A5.6,5.6,0,0,1,41,3.88l.744-2.48a1.3,1.3,0,0,0,.069-.816.7.7,0,0,0-.467-.339L41.108.173,41.159,0,43.9.82,43.849,1,43.607.922a.659.659,0,0,0-.636.08,1.465,1.465,0,0,0-.328.665l-.829,2.767a6.123,6.123,0,0,0-.186.866,1.875,1.875,0,0,0,.022.82,1.4,1.4,0,0,0,.381.592,1.837,1.837,0,0,0,.769.419,2.357,2.357,0,0,0,1.2.062,1.492,1.492,0,0,0,.878-.492,4.149,4.149,0,0,0,.611-1.38l.771-2.57a1.383,1.383,0,0,0,.093-.784.72.72,0,0,0-.481-.368Z" transform="translate(-5.816)" fill="#4f157f"/>
      <path id="パス_50" data-name="パス 50" d="M50.213,3.09l1.5.991.638,6.379,2.107-3.186a1.326,1.326,0,0,0,.306-.713.727.727,0,0,0-.363-.485l-.193-.128.1-.151,1.923,1.274-.1.149-.2-.129a.669.669,0,0,0-.636-.117,1.46,1.46,0,0,0-.483.538l-3.082,4.655-.146-.095-.7-6.862-2.251,3.4a1.366,1.366,0,0,0-.31.709.745.745,0,0,0,.363.488l.2.128-.1.151L46.865,8.82l.1-.153.191.128a.682.682,0,0,0,.642.118,1.481,1.481,0,0,0,.485-.536l2.541-3.842a2.9,2.9,0,0,0-.12-.612,1.634,1.634,0,0,0-.253-.408,1.648,1.648,0,0,0-.335-.273Z" transform="translate(-6.7 -0.442)" fill="#4f157f"/>
      <path id="パス_51" data-name="パス 51" d="M55.577,15.592l-.129.126-1.983-2.03.129-.126.164.169a.714.714,0,0,0,.587.257,1.485,1.485,0,0,0,.621-.441l3.062-2.991a2.165,2.165,0,0,0,.432-.508.448.448,0,0,0,.009-.292.925.925,0,0,0-.23-.4l-.164-.168.129-.126,1.983,2.03-.129.128-.168-.173a.7.7,0,0,0-.583-.255,1.431,1.431,0,0,0-.623.439l-3.064,2.989a2.229,2.229,0,0,0-.43.508.44.44,0,0,0-.007.3.9.9,0,0,0,.226.4Z" transform="translate(-7.643 -1.295)" fill="#4f157f"/>
      <path id="パス_52" data-name="パス 52" d="M65.655,18.566l-.153.1a1.083,1.083,0,0,0-.474-.334,2.008,2.008,0,0,0-.864,0L58.159,19.36l-.1-.153,3.525-5.136a2.989,2.989,0,0,0,.313-.51.87.87,0,0,0,.042-.381,1.421,1.421,0,0,0-.162-.465l.153-.1,1.436,2.3-.153.095a1.25,1.25,0,0,0-.45-.423.362.362,0,0,0-.317.038,2.189,2.189,0,0,0-.527.594l-2.4,3.49L63.6,18a2.664,2.664,0,0,0,.789-.224.371.371,0,0,0,.155-.262.921.921,0,0,0-.1-.5c-.005-.016-.016-.042-.033-.078l.155-.1Z" transform="translate(-8.301 -1.804)" fill="#4f157f"/>
      <path id="パス_53" data-name="パス 53" d="M66.8,23.386l-2.511.74.412,1.4a1.2,1.2,0,0,0,.377.676,1.1,1.1,0,0,0,.84.047l.051.173-2.213.652-.051-.171a2.625,2.625,0,0,0,.558-.306.616.616,0,0,0,.175-.355,1.457,1.457,0,0,0-.08-.618l-.412-1.4-2.094.62a2.218,2.218,0,0,0-.5.186.326.326,0,0,0-.106.175.827.827,0,0,0,.051.372l.317,1.077a2.97,2.97,0,0,0,.306.762,1.228,1.228,0,0,0,.434.381,3.69,3.69,0,0,0,1.052.337l.055.188-1.755-.078-1.443-4.9.173-.051.067.224a.943.943,0,0,0,.233.4.414.414,0,0,0,.284.137,2.21,2.21,0,0,0,.631-.128l4.128-1.217a1.432,1.432,0,0,0,.709-.341.76.76,0,0,0,.022-.616l-.067-.226.175-.053,1.443,4.9-1.37.479-.055-.18a2.287,2.287,0,0,0,.625-.423.768.768,0,0,0,.18-.439,2.174,2.174,0,0,0-.124-.68Z" transform="translate(-8.615 -3.07)" fill="#4f157f"/>
      <path id="パス_54" data-name="パス 54" d="M62.366,36.636l-.046-1.768,3.038-2.322c-.011-.166-.018-.3-.022-.406V32c0-.047,0-.1,0-.151l-1.925.051a1.343,1.343,0,0,0-.773.157.69.69,0,0,0-.2.561l.007.259-.182.005-.073-2.838.18,0,.007.246a.663.663,0,0,0,.288.6,1.559,1.559,0,0,0,.722.084l4.277-.111a1.358,1.358,0,0,0,.773-.157.716.716,0,0,0,.2-.572l-.007-.25.182-.005.062,2.413a5.791,5.791,0,0,1-.113,1.56,1.78,1.78,0,0,1-.545.864,1.469,1.469,0,0,1-.975.375,1.547,1.547,0,0,1-1.07-.37A2.258,2.258,0,0,1,65.51,33.5l-1.864,1.418a3.363,3.363,0,0,0-.847.827,2.019,2.019,0,0,0-.252.888Zm3.282-4.791c0,.062,0,.113,0,.16s0,.084,0,.113a2.157,2.157,0,0,0,.447,1.418,1.315,1.315,0,0,0,1.059.454,1.359,1.359,0,0,0,1-.416,1.382,1.382,0,0,0,.363-1.037,4.467,4.467,0,0,0-.113-.765Z" transform="translate(-8.891 -4.271)" fill="#4f157f"/>
      <path id="パス_55" data-name="パス 55" d="M67.806,43.354l-2.234-.5.04-.177a2.829,2.829,0,0,0,1.093-.077,1.644,1.644,0,0,0,.747-.492,1.791,1.791,0,0,0,.416-.8,1.181,1.181,0,0,0-.117-.888.949.949,0,0,0-.616-.479.84.84,0,0,0-.585.084,5.39,5.39,0,0,0-1.27,1.19,10.177,10.177,0,0,1-1.024,1.068,1.912,1.912,0,0,1-.729.372,1.653,1.653,0,0,1-.778.011,1.719,1.719,0,0,1-1.137-.855,2.111,2.111,0,0,1-.2-1.586,2.992,2.992,0,0,1,.162-.519,5.716,5.716,0,0,1,.312-.574,2.8,2.8,0,0,0,.282-.554.257.257,0,0,0-.027-.2.6.6,0,0,0-.273-.169l.04-.177,2.216.5-.04.177a3.229,3.229,0,0,0-1.117.1,1.638,1.638,0,0,0-.718.51,2.018,2.018,0,0,0-.443.9,1.37,1.37,0,0,0,.1,1.01.986.986,0,0,0,.665.514,1.021,1.021,0,0,0,.51-.022,1.461,1.461,0,0,0,.545-.306,11.459,11.459,0,0,0,.837-.877,10.106,10.106,0,0,1,1.008-1.011,2.012,2.012,0,0,1,.731-.394,1.525,1.525,0,0,1,.775-.015,1.627,1.627,0,0,1,1.077.8,1.948,1.948,0,0,1,.2,1.471,2.8,2.8,0,0,1-.5,1.035,1.142,1.142,0,0,0-.2.35.288.288,0,0,0,.027.219.611.611,0,0,0,.27.193Z" transform="translate(-8.769 -5.436)" fill="#4f157f"/>
      <path id="パス_56" data-name="パス 56" d="M59.638,46.261l-.166-.071,1.119-2.608.166.071-.091.217a.708.708,0,0,0-.016.64,1.5,1.5,0,0,0,.645.4l3.933,1.691a2.285,2.285,0,0,0,.636.2.444.444,0,0,0,.272-.1.915.915,0,0,0,.286-.366l.091-.215.166.071-1.119,2.61-.166-.073.095-.221a.709.709,0,0,0,.013-.638,1.453,1.453,0,0,0-.643-.408l-3.935-1.689a2.193,2.193,0,0,0-.632-.2.427.427,0,0,0-.275.106.881.881,0,0,0-.282.361Z" transform="translate(-8.502 -6.23)" fill="#4f157f"/>
      <path id="パス_57" data-name="パス 57" d="M61.422,55.456,60.1,54.642l.106-.153a1.961,1.961,0,0,0,.567.208.984.984,0,0,0,.572-.1,1.392,1.392,0,0,0,.483-.47l.527-.769L58.171,50.5a1.387,1.387,0,0,0-.705-.321.728.728,0,0,0-.49.359l-.129.188-.149-.1,1.582-2.322.149.1L58.3,48.6a.672.672,0,0,0-.126.638,1.483,1.483,0,0,0,.529.488l4.181,2.854.448-.66a2.194,2.194,0,0,0,.315-.583.909.909,0,0,0-.049-.558,1.454,1.454,0,0,0-.468-.581l.1-.153,1.239.942Z" transform="translate(-8.105 -6.906)" fill="#4f157f"/>
      <path id="パス_58" data-name="パス 58" d="M55.959,60.73,54.2,62.221l-.118-.135.1-.082a1.02,1.02,0,0,0,.21-.326,1.431,1.431,0,0,0,.131-.536,4.459,4.459,0,0,0-.066-.838l-.406-2.954L52.97,56.084c-.262-.312-.461-.477-.6-.494a.75.75,0,0,0-.58.222l-.164.139-.117-.137L53.661,54l.117.137-.179.151a.672.672,0,0,0-.292.58,1.484,1.484,0,0,0,.379.614l1.013,1.2,3.18.944a6.243,6.243,0,0,0,.729.182,1.744,1.744,0,0,0,.552-.084.648.648,0,0,0,.248-.146l.118.139L57.364,59.54l-.117-.14.111-.093a.821.821,0,0,0,.253-.357.345.345,0,0,0-.06-.368,1.523,1.523,0,0,0-.638-.292l-2.435-.736.328,2.4a1.479,1.479,0,0,0,.219.711.442.442,0,0,0,.211.14.466.466,0,0,0,.264,0,1.032,1.032,0,0,0,.341-.21Z" transform="translate(-7.364 -7.719)" fill="#4f157f"/>
    </g>
    <path id="パス_13205" data-name="パス 13205" d="M-40.8-4.032c.528,0,.672.192.7.552.024.264.048.6.576.6.24,0,1.08-.192,1.08-.888,0-.312-.1-1.824-.12-2.184-.072-2.424-.072-5.52-.072-6.864,0-.552.048-.6.408-.744.144-.072.5-.264.5-.408,0-.24-1.7-1.392-1.824-1.392-.072,0-.24.192-.456.408a.9.9,0,0,1-.768.336h-3.168c-.144,0-.384-.024-.384-.264A23.4,23.4,0,0,1-43.1-17.016c.36-.672.5-.84,1.152-.84h3.96c.24,0,.816,0,.816-.384s-1.68-1.632-1.824-1.632c-.12,0-1.008,1.248-1.3,1.344a4.513,4.513,0,0,1-.816.024h-2.9c-1.128,0-2.112-.024-3.288-.072-.168,0-.912-.1-1.08-.1a.064.064,0,0,0-.072.072c0,.024,0,.048.1.144l.48.552c.072.1.12.168.192.168.048,0,.288-.048.336-.048a19.774,19.774,0,0,1,2.088-.072c.408,0,.48.264.48.528A17.647,17.647,0,0,1-45-15.312c-.1.576-.168.7-.768.7a1.272,1.272,0,0,1-.528-.144,5.819,5.819,0,0,0-1.152-.48c-.12,0-.168.072-.168.12,0,.12.12.48.12.576a18.392,18.392,0,0,1,.192,4.032v7.56c0,.432.072.552.552.552.072,0,1.08,0,1.1-.912,0-.48.144-.72.768-.72Zm-.024-6.6c.744,0,.744.168.744,1.7,0,.72,0,1.032-.744,1.032h-4.152c-.72,0-.816-.144-.816-1.824,0-.6.024-.912.768-.912Zm0-3.36c.744,0,.744.36.744,1.056,0,1.464,0,1.68-.744,1.68h-4.224c-.744,0-.744-.36-.744-1.056,0-1.488,0-1.68.744-1.68Zm-4.128,9.336c-.744,0-.768-.288-.768-1.872,0-.36.072-.744.744-.744H-40.8c.72,0,.72.384.72,1.032,0,1.32,0,1.584-.72,1.584ZM-57.528-19.7c-.024.024.1.648.12.816.216,1.632.288,5.64.288,7.44,0,5.736,0,8.04-1.752,11.9a3.175,3.175,0,0,0-.36.7c0,.048.048.072.1.072a.318.318,0,0,0,.24-.144c3.24-4.008,3.24-6.216,3.24-18.648a1.105,1.105,0,0,1,.216-.792c.264-.264.288-.288.288-.408C-55.152-19.1-57.36-19.872-57.528-19.7Zm3.24,2.4a2.764,2.764,0,0,0,.168.624,1.806,1.806,0,0,1,.048.552c0,.168.072,5.664.072,6.744,0,1.1-.024,2.352-.048,3.432-.024.384-.12,2.184-.12,2.592,0,.216,0,.576.5.576A1.155,1.155,0,0,0-52.488-3.7c.024-.36,0-6.6,0-7.848,0-.48,0-4.248.1-4.416a2.386,2.386,0,0,0,.36-.7.254.254,0,0,0-.12-.216c-.072-.048-1.872-.576-1.92-.576C-54.144-17.448-54.288-17.424-54.288-17.3Zm3.168-2.376c0,.048.144.312.216.528a2.378,2.378,0,0,1,.12.6c.024.648.048,11.088.048,11.952,0,.7-.048,4.2-.048,5.016,0,.984.048,1.368.5,1.368,1.248,0,1.248-.912,1.248-1.224,0-1.2-.144-7.008-.144-8.3,0-1.1-.048-6.432-.048-7.656a2.692,2.692,0,0,1,.168-1.32c.024-.048.264-.288.264-.36,0-.384-2.04-.744-2.112-.744C-51.048-19.824-51.12-19.752-51.12-19.68Zm6.072,16.56c-.216.456-.24.552-.384.7A17.394,17.394,0,0,1-50.5,1.08a5.467,5.467,0,0,0-.912.432c0,.1.12.12.168.12A20.524,20.524,0,0,0-46.992.264c.528-.24,2.76-1.416,3.288-1.7.6-.192.672-.216.672-.432,0-.144-.072-.192-.216-.288A10.2,10.2,0,0,0-44.9-3.168C-44.976-3.168-45.024-3.168-45.048-3.12Zm2.616.144A28.907,28.907,0,0,1-38.88.672a1.012,1.012,0,0,0,.744.456c.5,0,.744-.72.744-1.152A2.188,2.188,0,0,0-38.784-1.8a26.557,26.557,0,0,0-3.672-1.416c-.072,0-.12.024-.12.1C-42.576-3.072-42.5-3.024-42.432-2.976ZM-14.64-17.448c.768,0,1.272,0,1.272-.312,0-.432-1.776-2.112-2.064-2.112-.24,0-.288.072-1.128,1.392-.264.408-.528.408-1.536.408h-12.12c-1.128,0-2.136-.048-3.288-.1-.168,0-.912-.072-1.08-.072-.048,0-.072,0-.072.048s0,.048.1.168l.48.552c.072.1.12.144.192.144a4.31,4.31,0,0,0,.528-.048c.216-.024.912-.072,3.024-.072h4.344c.72,0,.72.384.72,1.056a31.287,31.287,0,0,1-.144,4.824c-.144.24-.456.24-.672.24H-29.28c-1.128,0-2.112-.024-3.288-.072-.168-.024-.888-.1-1.056-.1-.072,0-.1.024-.1.072,0,.024.024.048.1.144l.48.552c.072.1.12.168.216.168.072,0,.408-.072.5-.072.216-.024.912-.072,3.024-.072h3.216c.312,0,.672.12.672.528a15.47,15.47,0,0,1-1.968,5.76A18.427,18.427,0,0,1-33.7,1.344c-.1.048-.624.336-.624.408s.072.072.1.072a14.134,14.134,0,0,0,6.7-3.7A13.007,13.007,0,0,0-23.616-9.84c.048-.36.12-.744.432-.744.288,0,.384.384.456.792A16.928,16.928,0,0,0-19.536-2.16a13.309,13.309,0,0,0,3.768,3.72c.144,0,.264-.1.648-.552a3.082,3.082,0,0,1,1.7-.84c.768-.144.888-.168.888-.264,0-.12-.144-.168-.552-.336a13.553,13.553,0,0,1-7.032-5.616A14.924,14.924,0,0,1-22.2-10.392c0-.288.24-.312.456-.312h5.952c.792,0,1.272,0,1.272-.312a6.446,6.446,0,0,0-2.256-1.9c-.24,0-.312.12-1.008,1.176-.264.408-.528.408-1.536.408H-22.8c-.264,0-.552,0-.552-.648,0-.6.12-3.912.144-4.68.024-.408.024-.792.7-.792ZM1.512-3.888C.84-3.888.744-4.2.744-4.776a2.517,2.517,0,0,1,.12-1.056c.048-.12.576-.528.576-.672,0-.12-.048-.264-.768-.552-.648-.264-.7-.288-.7-.432,0-.12.144-.12.216-.12h2.64c.264,0,.576,0,.672.432.072.36.144.6.672.6A1.07,1.07,0,0,0,5.3-7.728c0-.312-.048-1.776-.048-2.088,0-.7,0-1.056.192-1.248.432-.384.5-.456.5-.648,0-.336-1.392-1.416-1.68-1.416-.168,0-.216.048-.456.36a.972.972,0,0,1-.888.408H-2.688a2.935,2.935,0,0,1-1.248-.264,3.775,3.775,0,0,0-1.224-.384.2.2,0,0,0-.216.216c0,.12.144.672.168.792.048.48.072,1.3.072,1.8,0,.384-.024,1.176-.048,1.968,0,.216-.12,1.344-.12,1.608,0,.528.288.648.744.648A.969.969,0,0,0-3.48-6.96c.024-.264.072-.648.744-.648h.84c.888,0,.936.192.936,2.832,0,.456,0,.888-.7.888h-1.68c-1.128,0-2.112,0-3.288-.072-.144,0-.888-.1-1.056-.1a.064.064,0,0,0-.072.072c0,.024,0,.048.1.144l.456.552c.1.1.144.168.216.168a3.641,3.641,0,0,0,.5-.072c.24,0,.936-.048,3.048-.048h1.776c.7,0,.7.12.7,2.136,0,.576,0,.96-.72.96H-6.192c-1.128,0-2.112,0-3.288-.072-.168,0-.912-.1-1.08-.1a.064.064,0,0,0-.072.072c0,.024,0,.048.1.144l.48.552c.072.1.12.168.192.168A4.606,4.606,0,0,0-9.336.552C-9.12.552-8.424.5-6.312.5H9.5c.84,0,1.248,0,1.248-.336,0-.384-1.752-1.944-2.016-1.944-.288,0-1.1,1.224-1.32,1.464-.144.144-.336.168-1.368.168H1.464c-.72,0-.72-.192-.72-2.112,0-.624.048-.984.768-.984H6.336c.864,0,1.3,0,1.3-.36,0-.384-1.536-1.608-1.824-1.608C5.568-5.208,4.8-4.08,4.56-3.96a4.178,4.178,0,0,1-1.176.072ZM2.9-11.736c.744,0,.768.288.768,1.1,0,2.376-.12,2.4-.816,2.4H-2.76c-.216,0-.552,0-.672-.288-.1-.192-.1-.24-.1-2.352,0-.672.144-.864.768-.864Zm-8.136-7.176a5.092,5.092,0,0,0-1.824-.48c-.024,0-.192.024-.192.072a1.666,1.666,0,0,0,.288.24,5.658,5.658,0,0,1,1.488,1.8c.72,1.344.792,1.488,1.176,1.488a.826.826,0,0,0,.792-.936A2.611,2.611,0,0,0-5.232-18.912ZM6.24-19.1c-.24-.192-.768-.648-1.056-.648-.144,0-.168.072-.288.408A8.212,8.212,0,0,1,3.888-17.5c-.144.264-1.08,1.488-1.08,1.512s.048.024.072.024a7.341,7.341,0,0,0,1.92-.816c1.392-.792,1.392-.792,1.776-.816.336,0,.648-.024.648-.336S6.7-18.7,6.24-19.1Zm-4.656,3.96c-.744,0-.744-.384-.744-.936a12.026,12.026,0,0,1,.12-2.376c.024-.048.36-.336.384-.36a.467.467,0,0,0,.216-.336c0-.624-2.184-.96-2.472-.96-.216,0-.24.1-.24.168,0,.12.12.72.144.84.072.456.1,1.968.1,2.5,0,1.1,0,1.464-.744,1.464H-6.864c-.6,0-.672-.1-.84-.48-.36-.792-.384-.888-.48-.888A8.205,8.205,0,0,0-8.5-15.24,4.726,4.726,0,0,1-9.936-12.7c-.432.408-.744.672-.744,1.272a.858.858,0,0,0,.84.888c.7,0,2.136-.888,2.376-3.432.048-.552.24-.552.648-.552h13.8c.216,0,.456,0,.456.336A9.368,9.368,0,0,1,6.7-12.432c0,.048,1.344-.648,1.608-.72a4.663,4.663,0,0,1,1.608-.168c.48-.024.72-.168.72-.5,0-.624-2.256-2.112-2.352-2.112-.12,0-.24.12-.408.384a.746.746,0,0,1-.744.408ZM21.72-11.76c.384,0,.648,0,.648.528a17.554,17.554,0,0,1-.384,2.424A15.759,15.759,0,0,1,13.632,1.416c-.24.12-.768.36-.768.48,0,.072.1.1.144.1A10.376,10.376,0,0,0,16.584.7c6.192-3.456,7.08-8.448,7.56-11.136.1-.5.1-.576.168-.576.048,0,.144.336.168.48A24.123,24.123,0,0,0,28.224-2.4c1.272,1.824,3.408,3.744,3.84,3.744a3.645,3.645,0,0,0,.792-.432,6.019,6.019,0,0,1,2.16-.456c.36-.024.48-.048.48-.216,0-.1,0-.1-.648-.36-6.792-2.664-9.912-9.792-9.912-11.256,0-.384.168-.384.7-.384h7.656c.792,0,1.272,0,1.272-.336a6.111,6.111,0,0,0-2.448-1.776c-.288,0-.384.1-1.152,1.08-.312.408-.432.408-1.536.408H25.272c-.384,0-.816,0-.816-.552,0-.576.168-3.36.192-3.984.048-1.128.048-1.248.5-1.632.264-.216.384-.36.384-.552,0-.24-.216-.36-.528-.432a19.948,19.948,0,0,0-2.5-.552c-.144,0-.144.072-.144.192s.072.672.1.816c.144,1.464.144,2.736.144,3.312,0,3.384-.072,3.384-.816,3.384H17.64c-1.128,0-2.112-.048-3.288-.1-.144,0-.888-.072-1.056-.072-.048,0-.1,0-.1.048s.024.048.12.168l.456.552c.072.1.12.144.216.144.072,0,.408-.048.5-.048.24-.024.912-.072,3.024-.072ZM41.9-5.4c-1.368,0-2.616-.072-3.312-.1-.168,0-.888-.072-1.056-.072-.024,0-.072,0-.072.048s0,.048.1.168l.456.552c.1.1.144.144.216.144.1,0,.432-.048.5-.048.84-.072,2.472-.072,3.048-.072h4.608c.672,0,.744.336.744.744,0,.36-.048,2.064-.048,2.592-.024,1.224-.312,1.224-.72,1.224-.384,0-2.352-.288-2.4-.288-.072,0-.216,0-.216.12,0,.144.264.24.552.36,1.008.432,1.752.744,1.944,1.392.1.288.12.432.456.432A1.742,1.742,0,0,0,48.648.408a33.886,33.886,0,0,0,.12-3.768c0-1.224,0-1.416.7-1.416H57.12c.792,0,1.272,0,1.272-.312a4.539,4.539,0,0,0-2.208-1.728c-.456,0-.528.192-.984,1.008-.216.384-.552.408-1.536.408H49.512c-.24,0-.768,0-.768-.648,0-1.44.048-1.464.36-1.656a19.293,19.293,0,0,1,3.984-1.92c.72-.168.936-.216.936-.576a3.458,3.458,0,0,0-1.512-1.584c-.216,0-.36.1-.6.384-.36.408-.456.408-1.536.408H44.952c-1.368,0-2.616-.048-3.312-.1-.168,0-.888-.072-1.056-.072-.024,0-.072,0-.072.048s0,.048.1.168l.48.552c.072.1.12.144.192.144.1,0,.432-.048.528-.048.816-.072,2.448-.072,3.024-.072h5.64c.336,0,.456,0,.456.168a6.01,6.01,0,0,1-2.352,2.04c-.216,0-1.224-.312-1.44-.312-.264,0-.264.312-.264.384,0,.1.1.576.168.936a8.9,8.9,0,0,1,.072,1.128c0,.624-.456.624-.744.624Zm4.584-14.64c-.072.072.1.408.12.48a13.223,13.223,0,0,1,.816,2.712c.1.5.24,1.416.984,1.416.456,0,.888-.5.888-1.224C49.3-18.624,46.7-20.28,46.488-20.04Zm-6.12.768c-.024.048.048.168.072.216a8.957,8.957,0,0,1,1.392,2.208c.72,1.536.816,1.728,1.416,1.728a.846.846,0,0,0,.816-.912c0-2.16-3-3.288-3.48-3.288C40.536-19.32,40.392-19.32,40.368-19.272Zm13.608-.36a1.092,1.092,0,0,0-.456-.192c-.144,0-.168.072-.24.528a12.817,12.817,0,0,1-1.224,3.144c-.1.192-.936,1.728-.936,1.752a.1.1,0,0,0,.1.1A12.514,12.514,0,0,0,53.88-16.56c.936-.96,1.056-1.08,1.464-1.176.432-.12.528-.144.528-.36C55.872-18.48,54.6-19.248,53.976-19.632ZM40.32-13.944c-.24,0-.552,0-.7-.336-.264-.624-.456-1.056-.672-1.056-.12,0-.168.192-.192.264a3.6,3.6,0,0,1-.7,1.92c-.744,1.032-.864,1.2-.864,1.7a.912.912,0,0,0,.888.936c.96,0,1.248-1.224,1.56-2.328.12-.48.336-.48.768-.48H54.648c.336,0,.648.024.648.336,0,.216-.816,1.608-.816,1.872a.1.1,0,0,0,.1.1c.12,0,.24-.1.432-.24a4.078,4.078,0,0,1,2.52-1.2c.1,0,.768.12.84.12.168,0,.48-.12.48-.384,0-.552-1.776-2.064-2.28-2.064-.264,0-.312.072-.576.432-.312.408-.6.408-1.536.408Z" transform="translate(688 4591)" fill="#333"/>
    <text id="Juntendo_University" data-name="Juntendo University" transform="translate(689 4609)" fill="#4f157f" font-size="12" font-family="CormorantGaramond-Regular, Cormorant Garamond"><tspan x="-47.292" y="0">Juntendo University</tspan></text>
  </g>
</svg>
