<svg id="search-box03" xmlns="http://www.w3.org/2000/svg" width="60" height="60" viewBox="0 0 60 60">
  <rect id="長方形_324" data-name="長方形 324" width="60" height="60"/>
  <path id="パス_8917" data-name="パス 8917" d="M-13.846.072a2.551,2.551,0,0,1-1.606-.459,1.473,1.473,0,0,1-.589-1.224V-1.89a.08.08,0,0,1,.09-.09h.441a.08.08,0,0,1,.09.09v.243a1,1,0,0,0,.432.842,1.977,1.977,0,0,0,1.2.32,1.638,1.638,0,0,0,1.053-.293.952.952,0,0,0,.36-.779.882.882,0,0,0-.167-.54,1.637,1.637,0,0,0-.513-.423,9.006,9.006,0,0,0-.976-.459,10.434,10.434,0,0,1-1.049-.472,1.763,1.763,0,0,1-.6-.522,1.346,1.346,0,0,1-.229-.806,1.415,1.415,0,0,1,.527-1.174,2.262,2.262,0,0,1,1.444-.418A2.428,2.428,0,0,1-12.37-5.9a1.52,1.52,0,0,1,.576,1.242v.2a.08.08,0,0,1-.09.09h-.45a.08.08,0,0,1-.09-.09v-.162a1.053,1.053,0,0,0-.41-.855,1.757,1.757,0,0,0-1.139-.333,1.592,1.592,0,0,0-.981.261A.893.893,0,0,0-15.3-4.8a.839.839,0,0,0,.167.536,1.4,1.4,0,0,0,.477.369q.31.158.958.41a8.725,8.725,0,0,1,1.057.5,2.108,2.108,0,0,1,.648.572,1.354,1.354,0,0,1,.248.823A1.47,1.47,0,0,1-12.3-.378,2.4,2.4,0,0,1-13.846.072Zm7.515-5.9a.08.08,0,0,1-.09.09H-9.733a.032.032,0,0,0-.036.036v2.223a.032.032,0,0,0,.036.036h2.322a.08.08,0,0,1,.09.09v.378a.08.08,0,0,1-.09.09H-9.733a.032.032,0,0,0-.036.036V-.594a.032.032,0,0,0,.036.036h3.312a.08.08,0,0,1,.09.09V-.09a.08.08,0,0,1-.09.09h-3.9a.08.08,0,0,1-.09-.09V-6.21a.08.08,0,0,1,.09-.09h3.9a.08.08,0,0,1,.09.09ZM-1.228,0a.1.1,0,0,1-.108-.072L-1.7-1.206a.035.035,0,0,0-.036-.027H-4.423a.035.035,0,0,0-.036.027l-.36,1.134A.1.1,0,0,1-4.927,0h-.486q-.1,0-.072-.1L-3.5-6.228A.1.1,0,0,1-3.388-6.3h.612a.1.1,0,0,1,.108.072L-.67-.1l.009.036Q-.661,0-.742,0ZM-4.279-1.8a.025.025,0,0,0,0,.031.043.043,0,0,0,.031.013h2.322a.043.043,0,0,0,.032-.013.025.025,0,0,0,0-.031l-1.17-3.672a.029.029,0,0,0-.027-.018.029.029,0,0,0-.027.018ZM4.172,0a.106.106,0,0,1-.108-.063L2.741-2.853A.035.035,0,0,0,2.7-2.88H1.175a.032.032,0,0,0-.036.036V-.09a.08.08,0,0,1-.09.09H.59A.08.08,0,0,1,.5-.09V-6.21A.08.08,0,0,1,.59-6.3H2.921a1.683,1.683,0,0,1,1.251.481,1.707,1.707,0,0,1,.477,1.256,1.7,1.7,0,0,1-.342,1.071,1.542,1.542,0,0,1-.927.567q-.036.018-.018.045L4.712-.108a.1.1,0,0,1,.009.045Q4.721,0,4.649,0Zm-3-5.742a.032.032,0,0,0-.036.036v2.277a.032.032,0,0,0,.036.036H2.849a1.144,1.144,0,0,0,.846-.324,1.144,1.144,0,0,0,.324-.846,1.159,1.159,0,0,0-.324-.851,1.136,1.136,0,0,0-.846-.328ZM7.925.081A2.371,2.371,0,0,1,6.818-.167a1.8,1.8,0,0,1-.743-.7A2.04,2.04,0,0,1,5.81-1.917V-4.392a2,2,0,0,1,.265-1.035,1.811,1.811,0,0,1,.743-.7,2.371,2.371,0,0,1,1.107-.247,2.407,2.407,0,0,1,1.107.243,1.8,1.8,0,0,1,.743.684,1.933,1.933,0,0,1,.266,1.017.1.1,0,0,1-.027.072.086.086,0,0,1-.063.027L9.491-4.3q-.09,0-.09-.081V-4.41A1.339,1.339,0,0,0,9-5.431a1.5,1.5,0,0,0-1.071-.383,1.486,1.486,0,0,0-1.071.387,1.342,1.342,0,0,0-.4,1.017v2.52a1.342,1.342,0,0,0,.4,1.017,1.486,1.486,0,0,0,1.071.387A1.5,1.5,0,0,0,9-.868,1.339,1.339,0,0,0,9.4-1.89v-.018q0-.081.09-.081l.459.027q.09,0,.09.081a1.974,1.974,0,0,1-.266,1.03,1.79,1.79,0,0,1-.743.689A2.407,2.407,0,0,1,7.925.081ZM15.052-6.21a.08.08,0,0,1,.09-.09H15.6a.08.08,0,0,1,.09.09V-.09A.08.08,0,0,1,15.6,0h-.459a.08.08,0,0,1-.09-.09V-2.853a.032.032,0,0,0-.036-.036H12.146a.032.032,0,0,0-.036.036V-.09a.08.08,0,0,1-.09.09h-.459a.08.08,0,0,1-.09-.09V-6.21a.08.08,0,0,1,.09-.09h.459a.08.08,0,0,1,.09.09v2.727a.032.032,0,0,0,.036.036h2.871a.032.032,0,0,0,.036-.036Z" transform="translate(30 51)" fill="#fff"/>
  <g id="グループ_1242" data-name="グループ 1242" transform="translate(-888.685 -22.364)">
    <path id="パス_450" data-name="パス 450" d="M917.006,55.717a10.289,10.289,0,0,1-7.293-3.011h0a10.349,10.349,0,1,1,7.293,3.011Zm-4.938-5.37a7,7,0,1,0-2.05-4.946,7.011,7.011,0,0,0,2.05,4.946Z" fill="#fff"/>
    <rect id="長方形_325" data-name="長方形 325" width="3.334" height="9.423" transform="matrix(0.707, -0.708, 0.708, 0.707, 922.303, 53.014)" fill="#fff"/>
  </g>
</svg>
