<svg xmlns="http://www.w3.org/2000/svg" width="147.165" height="13.755" viewBox="0 0 147.165 13.755">
  <g id="グループ_10155" data-name="グループ 10155" transform="translate(-1740.57 -33.355)">
    <path id="パス_12614" data-name="パス 12614" d="M6.8.78a7.057,7.057,0,0,0,3.12-1.8c.345-.075.525-.12.525-.33,0-.15-.075-.21-.255-.315L9.135-2.25H11.94c0,.255,0,.57.57.57.39,0,.735-.27.735-.87,0-.285-.09-2.79-.09-3.315,0-.7.03-2.37.03-2.76.33-.18.435-.27.435-.4,0-.105-.1-.18-.21-.27L12.78-9.8a.489.489,0,0,0-.27-.12c-.09,0-.18.09-.255.18l-.39.4H9.7a20.437,20.437,0,0,0,1.38-1.8H14c.09,0,.225,0,.225-.15a.36.36,0,0,0-.135-.24l-.8-.81a.378.378,0,0,0-.27-.165c-.06,0-.165.105-.225.195l-.54.81H9.39c-.69,0-1.455-.03-2.145-.09l.255.555a8.181,8.181,0,0,1,1.62-.1h.495a9.131,9.131,0,0,1-.24,1.8h-.24l-1.35-.6a10.114,10.114,0,0,1,.15,2.475c0,1.02-.045,2.46-.075,3.57-.015.24-.06,1.35-.06,1.575a.458.458,0,0,0,.525.51.9.9,0,0,0,.7-.255A10.05,10.05,0,0,1,6.735.69ZM11.94-6.765V-4.92H9.09V-6.765Zm0-2.205v1.845H9.09V-8.97Zm0,4.41v1.95H9.09V-4.56ZM9.06-2.115l.03-.135h.03ZM1.635-12.12A14.931,14.931,0,0,1,1.92-8.01c0,4.455-.2,6.045-1.35,8.52L.66.555C2.43-1.5,2.97-3.165,3-6.3c.015-.72-.015-4.215.015-5.01.135-.075.27-.18.27-.315,0-.105-.15-.195-.345-.24Zm1.9.81A21.715,21.715,0,0,1,3.7-8.04c0,1.65-.03,3.405-.06,4.38-.015.24-.09,1.38-.09,1.65a.493.493,0,0,0,.51.555.932.932,0,0,0,.72-.42,1.791,1.791,0,0,0,.09-.72c0-.6-.09-3.405-.09-3.825,0-.645.015-3.315.03-3.93.255-.195.345-.285.345-.42s-.135-.2-.27-.225Zm1.74-.78a8.027,8.027,0,0,1,.135.975c.075,1.02.075,3.885.075,5.07,0,1.68,0,4.275-.165,5.9A1.863,1.863,0,0,0,5.31.075.512.512,0,0,0,5.835.63c.42,0,.81-.195.81-.585,0-.09-.015-.255-.015-.33-.06-.78-.06-1.875-.06-3.3,0-1.08.045-6.42.045-7.62.21-.12.315-.21.315-.315,0-.135-.105-.195-.315-.24ZM11.22-1.575A5.57,5.57,0,0,1,12.825.15c.27.465.465.66.885.66a.7.7,0,0,0,.7-.735c0-.555-.4-.915-1.005-1.17a7.285,7.285,0,0,0-2.175-.585Zm18.36.75v-.15A8.209,8.209,0,0,1,22.935-6.63h4.8c.09,0,.225-.03.225-.165,0-.105-.075-.165-.15-.225l-1.08-.915c-.165-.15-.225-.165-.285-.165-.09,0-.15.075-.24.21l-.645.9H22.575a32.325,32.325,0,0,0,.195-3.6h5.805c.1,0,.225-.03.225-.165a.282.282,0,0,0-.15-.225l-1.08-.87c-.15-.12-.195-.165-.27-.165s-.135.06-.24.2l-.675.87h-8.1c-.165,0-1.23-.015-2.13-.09l.24.54a9.185,9.185,0,0,1,1.62-.09H21.45v.18c0,1.785-.1,3-.135,3.42h-2.34c-.165,0-1.23-.015-2.145-.09l.24.555A7.709,7.709,0,0,1,18.7-6.63h2.58c-.12,1.185-.435,4.26-5.235,6.99V.5C21.57-1.17,22.17-4.05,22.53-6.63h.15C23.04-3.765,24.975-.5,28.11.6,28.8-.5,29.16-.69,29.58-.825Zm6.06-6.3L34.26-7.74a16.5,16.5,0,0,1,.15,2.475c0,.285-.06,1.545-.06,1.8,0,.42.195.555.51.555.675,0,.7-.51.72-.9h4.05c0,.5-.015.66.345.66.9,0,.9-.465.9-.69,0-.285-.075-1.65-.075-1.965a4.543,4.543,0,0,1,.03-.465c.18-.105.435-.27.435-.45a.3.3,0,0,0-.12-.21l-.675-.615a.338.338,0,0,0-.24-.12c-.075,0-.18.09-.255.165l-.375.375Zm3.99.36V-4.17H35.58V-6.765ZM38.16-8.97v-2.355c.27-.12.45-.225.45-.405a.232.232,0,0,0-.195-.24l-1.725-.465a13.506,13.506,0,0,1,.3,3.465H33.06c-.06-.345-.06-.375-.09-.54h-.135a3.28,3.28,0,0,1-1.05,1.77c-.45.42-.51.525-.51.78a.7.7,0,0,0,.645.735c.69,0,1.26-.93,1.26-1.755a5.289,5.289,0,0,0-.06-.63h8.955c-.195.6-.225.72-.495,1.41l.1.075c.21-.12,1.26-.705,1.5-.825.135.015.4.045.54.045.375,0,.45-.165.45-.36a.4.4,0,0,0-.12-.3L43.1-9.4c-.075-.075-.165-.15-.225-.15a.98.98,0,0,0-.27.165l-.57.42H39.225c.165-.12.765-.57.99-.75.39-.315.87-.765,1.155-.99.21-.09.345-.15.345-.3a.273.273,0,0,0-.15-.225L40.14-12a7.539,7.539,0,0,1-1.1,3.03Zm0,6.93v-.915c.18-.075.33-.165.33-.33a.258.258,0,0,0-.225-.255L36.93-3.7a13.987,13.987,0,0,1,.09,1.665H34.935c-.165,0-1.23,0-2.145-.09l.255.555a7.539,7.539,0,0,1,1.62-.105h2.37V.09h-3.72c-.165,0-1.23,0-2.145-.09l.24.555A8.922,8.922,0,0,1,33.045.45h10.98c.1,0,.225-.015.225-.15A.33.33,0,0,0,44.1.06L43.035-.75c-.1-.075-.21-.165-.27-.165s-.135.045-.24.195L41.9.09H38.16V-1.68h4.08c.09,0,.225-.015.225-.165a.323.323,0,0,0-.15-.225l-.96-.78c-.135-.12-.195-.165-.3-.165-.06,0-.15.09-.21.18l-.57.795ZM33.645-11.6a5.691,5.691,0,0,1,.87,1.575c.27.69.48.9.81.9a.629.629,0,0,0,.675-.7c0-.96-.78-1.275-2.28-1.875ZM59.79-6.69v-.075a6.432,6.432,0,0,1-5.25-4.05c.465-.225.54-.255.81-.39.135-.075.21-.135.21-.255a.33.33,0,0,0-.15-.24l-.75-.57a.569.569,0,0,0-.3-.15c-.1,0-.195.105-.255.18l-.435.525c-.75-.015-1.2-.03-1.86-.075l.24.54a9.185,9.185,0,0,1,1.62-.09h.39a8,8,0,0,0,4.215,6.15A2.5,2.5,0,0,1,59.79-6.69ZM51.9-10.665a.351.351,0,0,0-.165-.255L50.01-11.955a2.928,2.928,0,0,1,.03.345c0,1.155-1.77,4.23-4.32,6.69l.075.12a14.037,14.037,0,0,0,5.52-5.49c.06-.03.375-.135.45-.165A.235.235,0,0,0,51.9-10.665ZM57.87-.405c0-1.455-2.385-3.135-4.02-3.525v.075a12.018,12.018,0,0,1,1.605,1.95c-.72.15-1.32.21-5.31.585.48-.675.945-1.41,1.47-2.31.48-.825,1.125-1.92,1.575-2.535.375-.18.42-.21.42-.345,0-.15-.165-.27-.24-.3l-1.725-.72a4.8,4.8,0,0,1-.015.93,25.218,25.218,0,0,1-1.95,5.325c-.615.06-1.005.1-1.23.1A6.354,6.354,0,0,1,47.235-1.3L47.76.36c.03.1.12.3.285.3A.215.215,0,0,0,48.21.585a4.073,4.073,0,0,0,.36-.36A48.313,48.313,0,0,0,55.62-1.59c.1.24.57,1.4.69,1.65a.794.794,0,0,0,.7.5A.857.857,0,0,0,57.87-.405Zm13.95-10.11a1.356,1.356,0,0,0-.675-1.065,3.228,3.228,0,0,0-1.365-.435l-.075.165a4.4,4.4,0,0,1,.765,1.44c.18.42.345.6.675.6A.681.681,0,0,0,71.82-10.515Zm2.55,1.6c0-.09-.06-.15-.15-.225l-1.035-.885c-.165-.15-.225-.18-.285-.18-.075,0-.105.03-.24.195l-.75.9H68.985c-.09-1.185-.09-1.86-.09-2.37.27-.135.57-.285.57-.45,0-.075-.045-.165-.3-.225l-1.98-.495a3.113,3.113,0,0,1,.33,1.23c.03.285.225,2.2.24,2.31h-4.83c-.165,0-1.23-.015-2.145-.09l.255.555a7.446,7.446,0,0,1,1.62-.105H67.8c.51,3.615,1.185,6.03,2.865,8.145A4.724,4.724,0,0,0,73.47,1.11c.465,0,.72-.285.72-.585,0-.195-.06-.285-.285-.585a.763.763,0,0,1-.195-.585c0-.8.12-2.34.135-2.64L73.77-3.3c-.255.645-.45,1.125-.735,1.695-.39.78-.39.78-.555.78-.36,0-.99-.78-1.185-1.05a13.4,13.4,0,0,1-2.28-6.87h5.13C74.25-8.745,74.37-8.775,74.37-8.91ZM68.85-3.195,68.805-3.3a33.568,33.568,0,0,1-3.6,1.2V-5.88h2.28c.09,0,.225,0,.225-.15,0-.105-.075-.165-.15-.225l-.93-.825c-.135-.12-.195-.165-.27-.165-.09,0-.165.105-.24.2l-.6.81H63.21a20.517,20.517,0,0,1-2.145-.09l.255.555a8.181,8.181,0,0,1,1.62-.105h1.05v4.11a14.905,14.905,0,0,1-2.79.525,3.2,3.2,0,0,1-.585-.06L61.26.33c.06.165.165.33.33.33.1,0,.24-.09.285-.375A27.111,27.111,0,0,0,68.85-3.195Zm11.49.42L78.54-9.42a1.829,1.829,0,0,1-.09-.495c0-.42.45-.54.99-.54h.375v-.5h-4.26v.5h.3c.42,0,.945.12,1.215,1.14l2.6,9.6h.285l2.535-8.61L84.96.285h.285l2.4-9.225c.135-.525.57-1.515,1.425-1.515h.375v-.5h-3.48v.5h.315c.105,0,1.005,0,1.005.75a2.959,2.959,0,0,1-.09.57l-1.65,6.36L83.64-9.4a2.413,2.413,0,0,1-.1-.555c0-.36.525-.495.9-.495h.375v-.5H80.565v.5h.255c.165,0,1.05,0,1.395,1.3Zm16.515-1.11c-.195-2.01-1.485-3.5-2.97-3.5-1.545,0-3.27,1.68-3.27,4.11A3.237,3.237,0,0,0,93.825.285a3.753,3.753,0,0,0,3.09-1.725l-.345-.33a2.826,2.826,0,0,1-2.25,1.3c-.5,0-2.37-.21-2.37-3.42ZM92-4.365c.39-2.49,1.71-2.49,1.935-2.49,1.395,0,1.455,1.965,1.47,2.49ZM97.8-10.35a1.6,1.6,0,0,1,.435-.06.757.757,0,0,1,.765.8v9.9h.27l.855-.945a2.914,2.914,0,0,0,1.98.945c.99,0,3.06-.99,3.06-3.9,0-2.715-1.74-3.765-2.94-3.765a2.546,2.546,0,0,0-2.04,1.155v-5l-2.46.525Zm2.385,4.74a2,2,0,0,1,1.665-.99c1.47,0,1.92,1.605,1.92,2.895,0,2.07-1,3.18-2.115,3.18a2.371,2.371,0,0,1-1.47-.57Zm19.8-1.74c0-.225-.045-.27-.24-.42a2.647,2.647,0,0,0-1.305-.57c-.09,0-.5.15-.6.165s-1.605.075-1.74.09a20.433,20.433,0,0,1,.195-2.13c.015-.105.15-.6.15-.72,0-.525-1.47-.825-1.86-.825-.33,0-.48.09-.93.39,1.26.135,1.26.765,1.26,1.41,0,.27-.03,1.56-.045,1.92-.615.03-.84.06-2.835.27a11.165,11.165,0,0,1,.075-1.77c.015-.105.195-.54.195-.645,0-.33-1.2-.825-1.665-.825a1.535,1.535,0,0,0-.96.375c.66.2.9.255,1.05.585a8.369,8.369,0,0,1,.24,2.4c-.285.03-1.65.21-1.965.21a1.731,1.731,0,0,1-.825-.225,8.211,8.211,0,0,1-.6-.78,1.343,1.343,0,0,0-.165.75c0,.645.675,1.65,1.245,1.65.06,0,.09-.015.345-.15a14.511,14.511,0,0,1,1.965-.48c-.015.4-.015.465-.015,1.11v.585c-.015.075-.075.645-.075.7,0,.24.21,1.14.75,1.14.465,0,.465-.4.465-.93,0-.405-.045-2.37-.045-2.82a19.422,19.422,0,0,1,2.805-.345c-.015.375-.03,2.175-.06,2.58A9.037,9.037,0,0,1,112.41.525l.12.09c2.31-1.575,3.285-3.2,3.42-5.175.03-.39.09-2.235.12-2.655.585.03,1.035.075,1.455.135.645.075,1.785.24,1.95.24C119.79-6.84,119.985-6.87,119.985-7.35Zm11.82-3.075a2.544,2.544,0,0,0-1.965-1.515,3.973,3.973,0,0,0-.66.06c.345.285.75.63.75,1.005,0,.615-4,5.67-7.065,7.545l.06.09a13.223,13.223,0,0,0,5.19-3.345c.165.12.165.12.195.21a18.563,18.563,0,0,1,.09,2.235,20.732,20.732,0,0,1-.12,2.55c-.015.135-.15.81-.15.96,0,.405.36,1.185.825,1.185s.585-.66.585-1.035c0-.51-.1-3.09-.1-3.675,0-.96.03-1.755.045-1.875.015-.09.165-.51.165-.615,0-.21-.525-.57-.78-.72.225-.24,1.26-1.41,1.5-1.665a5.468,5.468,0,0,1,.975-.9C131.745-10.2,131.8-10.245,131.8-10.425Zm15.93,5.79c0-1.41-2.61-2.37-4.32-2.58a17.026,17.026,0,0,1,.2-3.06,5.961,5.961,0,0,0,.225-.735c0-.465-1.62-.78-1.9-.78a2.156,2.156,0,0,0-.99.345c1.11.435,1.155.57,1.2.765.15.555.18,4.035.18,4.8a32.4,32.4,0,0,1-.2,3.99,5.171,5.171,0,0,0-.1.915c0,.825.375,1.47.81,1.47.4,0,.72-.465.72-1.11,0-.27-.1-1.635-.1-1.935,0-.09-.06-3.375-.03-4.305,1.08.39,1.5.825,3.06,2.55a.915.915,0,0,0,.645.4A.644.644,0,0,0,147.735-4.635Z" transform="translate(1740 46)" fill="#fff"/>
  </g>
</svg>
