<svg xmlns="http://www.w3.org/2000/svg" width="629.395" height="125.59" viewBox="0 0 629.395 125.59">
  <g id="グループ_120" data-name="グループ 120" transform="translate(-646.083 -421.73)">
    <path id="パス_12620" data-name="パス 12620" d="M-272.707-23.725l5.2-.065h.975q1.04,0,1.04.585,0,.455-1.658,1.17T-269-20.215a37.461,37.461,0,0,0-.455,6.012q0,3.218.065,4.713t.1,2.112q.032.617.1,1.072a5.374,5.374,0,0,1,.065.715q0,.26-.487.423t-1.592.455a7.611,7.611,0,0,0-2.015.845q-.91.553-1.365.813t-1.2.65q-.747.39-1.528.78t-1.755.813a20.269,20.269,0,0,1-2.015.747q-1.04.325-2.145.585a20.331,20.331,0,0,1-4.68.585A35.787,35.787,0,0,1-300.235-.812a19.424,19.424,0,0,1-8.092-5.168,22.7,22.7,0,0,1-5.59-15.405,28.094,28.094,0,0,1,2.828-12.74,21.951,21.951,0,0,1,8.677-9.132,26.728,26.728,0,0,1,13.91-3.478,28.789,28.789,0,0,1,13.39,2.925,20.98,20.98,0,0,1,1.982,1.2,2.585,2.585,0,0,0,.845.487,2.585,2.585,0,0,0,.845-.487,2.2,2.2,0,0,1,.943-.487q.975,0,1.008,1.592t.26,3.672q.227,2.08.422,3.445t.2,1.625q0,1.105-.78,1.105a1.129,1.129,0,0,1-1.105-.78,19.788,19.788,0,0,0-7.6-8.352A20.119,20.119,0,0,0-289.087-44.2a18.563,18.563,0,0,0-13.423,5.1q-5.3,5.1-5.3,14.137a28.756,28.756,0,0,0,2.21,11.245,20.976,20.976,0,0,0,6.728,8.71,16.03,16.03,0,0,0,9.945,3.445,19.1,19.1,0,0,0,9.49-2.275q4.063-2.275,4.518-5.2.195-1.56.195-8.19,0-2.535-.943-3.478a4.846,4.846,0,0,0-2.957-1.17q-2.015-.227-2.242-.65a1.714,1.714,0,0,1-.228-.812q0-.715,1.17-.715Zm27.755,24.9a13.682,13.682,0,0,1-10.562-4.257,14.475,14.475,0,0,1-3.932-10.173A14.788,14.788,0,0,1-255.385-23.6a13.875,13.875,0,0,1,10.725-4.42,16.68,16.68,0,0,1,11.18,3.835q4.518,3.835,4.518,10.66T-233.61-2.763A16.965,16.965,0,0,1-244.952,1.17Zm-.715-27.43A8.231,8.231,0,0,0-251.68-23.6q-2.633,2.665-2.633,8.775a14.475,14.475,0,0,0,3.575,10.075q3.575,3.965,7.7,3.965a8.52,8.52,0,0,0,6.663-2.828q2.535-2.828,2.535-8.287a16.879,16.879,0,0,0-3.12-9.913A10.037,10.037,0,0,0-245.667-26.26Zm37.895,27.43a13.682,13.682,0,0,1-10.562-4.257,14.475,14.475,0,0,1-3.932-10.173A14.788,14.788,0,0,1-218.2-23.6a13.875,13.875,0,0,1,10.725-4.42A16.68,16.68,0,0,1-196.3-24.18q4.518,3.835,4.518,10.66T-196.43-2.763A16.965,16.965,0,0,1-207.772,1.17Zm-.715-27.43A8.231,8.231,0,0,0-214.5-23.6q-2.633,2.665-2.633,8.775a14.475,14.475,0,0,0,3.575,10.075q3.575,3.965,7.7,3.965a8.52,8.52,0,0,0,6.663-2.828q2.535-2.828,2.535-8.287a16.879,16.879,0,0,0-3.12-9.913A10.037,10.037,0,0,0-208.487-26.26ZM-162.012.2l-.195-2.405q0-1.105-.585-1.105-.2,0-.943.65T-165.458-1.2A9.211,9.211,0,0,1-168.285.26a11.991,11.991,0,0,1-4,.65q-6.045,0-9.425-4a14.873,14.873,0,0,1-3.38-9.945A15.727,15.727,0,0,1-180.9-23.725q4.192-4.745,11.6-4.745a14.61,14.61,0,0,1,4.452.942,26.65,26.65,0,0,0,3.022.942q.26,0,.26-2.34l.13-8.385a23.24,23.24,0,0,0-.358-4.94,2.923,2.923,0,0,0-1.1-1.885,3.783,3.783,0,0,0-1.982-.455h-.715a5.67,5.67,0,0,1-1.17-.065q-.2-.065-.2-.455v-.065q0-.455.65-.683t2.632-.845a27.465,27.465,0,0,0,3.12-1.138q1.137-.52,1.723-.78a4.621,4.621,0,0,1,1.755-.65q.78,0,.78,1.3,0,.195-.423,5.525t-.423,8.58l-.13,23.725a26.351,26.351,0,0,0,.423,5.915,2.681,2.681,0,0,0,1.853,1.95q.195.065,1.1.227a4.244,4.244,0,0,1,1.3.39.8.8,0,0,1,.39.748q0,.78-5.005,1.17a16.611,16.611,0,0,0-2.4.357A11.983,11.983,0,0,1-161.3.91.632.632,0,0,1-162.012.2Zm-9.36-26.78A7.94,7.94,0,0,0-178-23.5a12.472,12.472,0,0,0-2.4,7.9,14.963,14.963,0,0,0,3.023,8.97,9.22,9.22,0,0,0,7.768,4.16,9.9,9.9,0,0,0,5.33-1.5,4.292,4.292,0,0,0,2.405-3.64l.065-11.115q0-3.965-1.82-5.005Q-168.447-26.585-171.372-26.585Zm45.435.455.065-7.02a59.214,59.214,0,0,0-.39-7.735,3.309,3.309,0,0,0-1.723-2.535,5.413,5.413,0,0,0-2.665-.91,1.953,1.953,0,0,1-1.495-.423,1.213,1.213,0,0,1-.357-.683q0-.715,1.82-.715l7.345.26,5.72-.13q1.43,0,1.43.91,0,1.105-2.275,1.105-1.3,0-1.885,2.665a25.391,25.391,0,0,0-.585,5.46v2.4l-.13,5.98a3.581,3.581,0,0,0,.39,2.08q.39.455,1.82.455l10.66-.065,12.285.13q.715,0,.715-9.035v-3.51q0-4.875-1.95-5.98A4.587,4.587,0,0,0-98.735-44a6.2,6.2,0,0,1-1.365-.358.862.862,0,0,1-.553-.877q0-.65,2.535-.65l6.305.13,5.07-.13q1.495,0,1.5.845t-.91.845a3.43,3.43,0,0,0-2.763,1.105,4.353,4.353,0,0,0-.942,2.925l-.325,25.545v2.405l.26,5.98q0,4.225,5.46,4.81.78,0,.78.715,0,.455-.65.585A15.738,15.738,0,0,1-86.872,0l-5-.325L-97.987,0h-1.105q-.91,0-1.073-.26a1.141,1.141,0,0,1-.162-.617q0-.357.65-.683a6.965,6.965,0,0,1,1.43-.52,3.825,3.825,0,0,0,1.5-.78q1.365-.975,1.365-6.11l.195-11.505a1.4,1.4,0,0,0-.78-1.365,6.042,6.042,0,0,0-2.535-.39q-1.755,0-5.265.13l-3.51.065-11.96-.195a1.661,1.661,0,0,0-1.3.39,3.772,3.772,0,0,0-.325,2.015l-.26,8v2.8a12.435,12.435,0,0,0,.52,4.16,6.035,6.035,0,0,0,2.535,2.665,3.844,3.844,0,0,0,1.885.325q2.145,0,2.145.715,0,1.17-2.08,1.17l-5.395-.26-7.02.325q-3.055,0-3.055-.975,0-.91,2.015-1.17a2.884,2.884,0,0,0,1.625-.812,3.552,3.552,0,0,0,1.105-2.015q.26-1.267.585-6.857t.325-10.66ZM-64.512,1.235a14.214,14.214,0,0,1-9.717-3.51q-4-3.51-4-10.172A17.017,17.017,0,0,1-74.555-23.6a11.735,11.735,0,0,1,9.522-4.485,12.342,12.342,0,0,1,4.973.975,9.732,9.732,0,0,1,3.478,2.372,15.9,15.9,0,0,1,2.08,2.958,9.741,9.741,0,0,1,1.43,4.03q0,1.17-2.665,1.17H-72.442a1.1,1.1,0,0,0-.618.1,1.105,1.105,0,0,0-.1.618q0,6.11,3.282,9.62a10.226,10.226,0,0,0,7.7,3.51,12.038,12.038,0,0,0,5.557-1.462q2.827-1.462,2.958-1.463.65,0,.65.585,0,.78-1.43,2.113A20.29,20.29,0,0,1-57.167-.78,13.239,13.239,0,0,1-64.512,1.235Zm-7.41-19.37,11.44-.39a2.4,2.4,0,0,0,1.138-.163.714.714,0,0,0,.228-.618,8.336,8.336,0,0,0-1.82-4.55,5.843,5.843,0,0,0-5.07-2.6,5.7,5.7,0,0,0-5,2.567,8.691,8.691,0,0,0-1.755,4.843Q-72.767-18.135-71.923-18.135ZM-38.058.975q-7.67,0-7.67-6.5,0-4.68,3.9-6.435a47.39,47.39,0,0,1,9.945-2.47,2.478,2.478,0,0,1,.52-.1q.325-.032.683-.1a4.248,4.248,0,0,0,.552-.13q.455-.2.455-.91l.13-3.38q0-3.7-2.145-5.362a6.865,6.865,0,0,0-4.16-1.657q-4.68,0-4.68,3.9l.26,2.34q0,1.3-1.17,1.3a7.2,7.2,0,0,1-2.015-.325q-2.015-.65-2.015-2.21,0-2.535,3.412-4.843A12.16,12.16,0,0,1-35.2-28.21a17.721,17.721,0,0,1,5.395.65A8.7,8.7,0,0,1-26.91-26.1a5.3,5.3,0,0,1,1.463,2.177,14.73,14.73,0,0,1,.65,5.1q0,3.477-.163,6.175t-.163,4.907a10.508,10.508,0,0,0,.52,3.608A3.228,3.228,0,0,0-23.368-2.34a3.671,3.671,0,0,0,1.43.455q1.755.13,1.755,1.04,0,1.365-4.1,1.365A4.655,4.655,0,0,1-27.17-.39a6.565,6.565,0,0,1-1.722-1.787,4.047,4.047,0,0,0-.585-.877,2.259,2.259,0,0,0-.52.422,13.585,13.585,0,0,1-1.267,1.007,19.736,19.736,0,0,1-1.853,1.17A9.55,9.55,0,0,1-38.058.975Zm7.93-14.5-.65.13q-1.5.26-1.885.325t-1.82.39a11.013,11.013,0,0,0-1.982.585q-.552.26-1.56.813a4.692,4.692,0,0,0-1.463,1.137,6.98,6.98,0,0,0-1.17,3.835,4.6,4.6,0,0,0,1.3,3.348A4.472,4.472,0,0,0-36.01-1.625a8.346,8.346,0,0,0,3.25-.52,5.107,5.107,0,0,0,1.787-1.17,4.471,4.471,0,0,0,.91-1.755,10.806,10.806,0,0,0,.39-3.185v-4.68Q-29.673-13.52-30.128-13.52Zm18.785,1.04.26-27.625a7.123,7.123,0,0,0-.487-2.7,2.574,2.574,0,0,0-1.073-1.462,7.963,7.963,0,0,0-2.6-.26q-.715,0-.715-.455a1.564,1.564,0,0,1,.1-.65.9.9,0,0,1,.422-.357,4.551,4.551,0,0,1,.78-.293,16.8,16.8,0,0,0,3.9-1.365A13.646,13.646,0,0,1-6.6-49.14q.78,0,.78,1.235,0,.26-.13,1.495a83.236,83.236,0,0,0-.39,8.385v3.64l-.13,8.645V-6.37A9.158,9.158,0,0,0-6.24-4.128a3.141,3.141,0,0,0,1.495,1.69A6.545,6.545,0,0,0-1.2-1.625.745.745,0,0,1-.618-1.3a1.041,1.041,0,0,1,.26.65q0,.91-2.015.91L-8.938-.2a19.162,19.162,0,0,0-3.218.26,15.424,15.424,0,0,1-2.015.26A1.237,1.237,0,0,1-14.95.1a.709.709,0,0,1-.293-.585.709.709,0,0,1,.293-.585,2.308,2.308,0,0,1,.943-.357q1.95-.52,2.34-1.593a8.947,8.947,0,0,0,.39-2.957l-.065-1.69ZM5.948-24.115l-1.235.065q-1.1,0-1.1-.91a1.359,1.359,0,0,1,.585-1.1,20.829,20.829,0,0,0,4.94-4.875,23.38,23.38,0,0,1,1.657-2.177,1.742,1.742,0,0,1,1.267-.682q.65,0,.65,1.495l-.26,3.7q0,.91.358,1.1a7.277,7.277,0,0,0,2.307.2h2.275a11.065,11.065,0,0,0,3.575-.325,5.375,5.375,0,0,1,1.43-.585q.65,0,.65.715a5.746,5.746,0,0,1-.845,2.048q-.845,1.528-1.235,1.528-2.925,0-4.1-.13t-1.56-.162q-.39-.032-.682-.065T14.2-24.31l-.13-.065a2.246,2.246,0,0,0-1.592.39,2.841,2.841,0,0,0-.357,1.755l-.26,12.09q0,4.225,1.072,5.883T17.453-2.6a8.738,8.738,0,0,0,3.023-.618,17.093,17.093,0,0,1,1.787-.618q.65,0,.65.845T20.67-.748A8.989,8.989,0,0,1,15.828.65q-8.775,0-8.775-7.6V-7.93l.26-15.145a1.032,1.032,0,0,0-.26-.845A2.06,2.06,0,0,0,5.948-24.115ZM34.287-.325,29.672,0q-1.625,0-1.69-.2a1.44,1.44,0,0,1-.065-.455q0-.65.78-.845a3.554,3.554,0,0,0,2.438-1.658A7.927,7.927,0,0,0,31.687-6.5l.26-22.165V-31.85a82.128,82.128,0,0,0-.39-10.79,2.17,2.17,0,0,0-2.34-1.95h-.845l-.26-.065q-1.105,0-1.105-.585a1.065,1.065,0,0,1,.683-.943,9.4,9.4,0,0,1,1.95-.683,25.079,25.079,0,0,0,3.608-1.365,11.076,11.076,0,0,1,2.925-1.04q.845,0,.845,1.495a12.1,12.1,0,0,1-.227,1.56,33.747,33.747,0,0,0-.26,4.778q-.033,3.543-.13,7.6t-.163,5.493q-.13,2.73-.13,3.835t.52,1.1a7.439,7.439,0,0,0,1.333-1.2,15.635,15.635,0,0,1,3.315-2.4,8.986,8.986,0,0,1,4.517-1.2q5.265,0,8.19,3.12t2.925,9.685V-5.98a4.891,4.891,0,0,0,.65,2.73,2.022,2.022,0,0,0,1.5,1.04q3.51.325,3.51,1.365T60.547.2L55.087-.13l-5,.2q-1.5,0-1.5-.65,0-1.17,1.755-1.17a1.543,1.543,0,0,0,1.2-.715A3.605,3.605,0,0,0,52.1-4.68l.065-1.69.065-9.1a10.387,10.387,0,0,0-2.405-6.857,7.089,7.089,0,0,0-5.557-2.893,10.452,10.452,0,0,0-6.4,2.535,4.454,4.454,0,0,0-1.495,2.958,75.814,75.814,0,0,0-.325,9.067v1.495A20.167,20.167,0,0,0,36.5-4.42a3.593,3.593,0,0,0,3.575,2.73,6.006,6.006,0,0,1,1.4.227.657.657,0,0,1,.487.683q0,.78-.715.78l-1.69-.065Q37.862-.13,36.14-.228T34.287-.325Zm52.585-24.05-2.6.195q-1.43,0-1.43-.845a1.807,1.807,0,0,1,.552-1.56,4.137,4.137,0,0,1,2.177-.39h1.365q.78,0,.975-.358a2.492,2.492,0,0,0,.195-1.137,23.847,23.847,0,0,1,1.56-8.742,18.172,18.172,0,0,1,3.9-6.338q4.81-5,8.84-5.005a5.3,5.3,0,0,1,2.438.488,1.48,1.48,0,0,1,.943,1.332,6.1,6.1,0,0,1-.228,1.138q-.227.877-.293,1.138a3.375,3.375,0,0,1-.13.422q-.065.163-.13.358a1.274,1.274,0,0,1-.13.292q-.065.1-.162.228a.645.645,0,0,1-.228.195.924.924,0,0,1-.52.13q-.325,0-.65-.455-.975-1.235-3.478-1.235a5.345,5.345,0,0,0-3.9,1.365,8.566,8.566,0,0,0-2.112,3.64,32.932,32.932,0,0,0-1.365,9.75v1.625q0,1.235.78,1.235,5.72,0,6.955-.91a1.6,1.6,0,0,1,.715-.26q.26,0,.26.683a5.848,5.848,0,0,1-.91,2.307,1.84,1.84,0,0,1-1.625.585l-5.07.065q-1.04,0-1.04.65v3.77l.325,12.87q0,3.445.91,4.55a3.749,3.749,0,0,0,3.185,1.365q1.105,0,1.105.975,0,.65-.715.65l-6.5-.325L86.027.39q-.975,0-.975-.91,0-.325.813-.65a4.356,4.356,0,0,0,1.592-1.2,2.905,2.905,0,0,0,.78-1.983q0-1.105-.065-3.185-.195-6.37-.195-15.795,0-.715-.227-.878A1.636,1.636,0,0,0,86.872-24.375ZM120.737,1.17a13.682,13.682,0,0,1-10.562-4.257,14.475,14.475,0,0,1-3.932-10.173A14.788,14.788,0,0,1,110.3-23.6a13.875,13.875,0,0,1,10.725-4.42,16.68,16.68,0,0,1,11.18,3.835q4.518,3.835,4.518,10.66T132.08-2.763A16.965,16.965,0,0,1,120.737,1.17Zm-.715-27.43A8.231,8.231,0,0,0,114.01-23.6q-2.632,2.665-2.632,8.775a14.475,14.475,0,0,0,3.575,10.075q3.575,3.965,7.7,3.965a8.52,8.52,0,0,0,6.662-2.828q2.535-2.828,2.535-8.287a16.879,16.879,0,0,0-3.12-9.913A10.037,10.037,0,0,0,120.022-26.26ZM144.268-23.6l-.715-.065q-1.235,0-1.235-1.04,0-.715.878-1.073t3.25-1.105a34.9,34.9,0,0,0,3.738-1.365,7.149,7.149,0,0,1,1.625-.618q.845,0,.845,1.3l-.065,1.755a9.385,9.385,0,0,0,.163,2.568q.162.227.325.227t1.008-1.3a12.565,12.565,0,0,1,2.4-2.632,4.792,4.792,0,0,1,3.087-1.333,5.734,5.734,0,0,1,3.152,1.072q1.625,1.073,1.625,2.145a3.927,3.927,0,0,1-.52,1.983q-.91,1.56-1.69,1.56a4.721,4.721,0,0,1-1.853-.78,6,6,0,0,0-3.087-.78,4.737,4.737,0,0,0-3.283,1.43,3.887,3.887,0,0,0-1.527,2.6v6.76l.065,5.655.065,1.17a3.309,3.309,0,0,0,.91,2.34,3.21,3.21,0,0,0,1.723,1.105q.813.13,1.4.195t.91.1a3.332,3.332,0,0,1,.715.162.834.834,0,0,1,.715.943q0,.813-.78.813L152.588-.13,145.828.2q-1.17,0-1.3-.26a1.154,1.154,0,0,1-.13-.52,1.071,1.071,0,0,1,.845-1.105,2.456,2.456,0,0,0,2.048-1.658,25.257,25.257,0,0,0,.357-5.428l-.065-10.465-.065-1.95a3,3,0,0,0-.2-1.17Q146.8-23.6,144.268-23.6ZM191.133,0l-5.59.26q-1.885,0-1.885-.78a1.237,1.237,0,0,1,.975-1.235,7.416,7.416,0,0,0,3.64-3.478q1.56-2.7,7.833-16.315t11.148-24.017a3.381,3.381,0,0,1,.813-1.235,1.754,1.754,0,0,1,1.04-.26q.683,0,.878.26a9.694,9.694,0,0,1,.715,1.755q.52,1.5.813,2.275t.943,2.535q.65,1.755,2.08,5.265T221.065-19.6q5.1,11.862,5.882,13.455a8.225,8.225,0,0,0,2.145,2.73,4.717,4.717,0,0,0,2.372,1.235,7.8,7.8,0,0,1,1.69.325.955.955,0,0,1,.682,1.007q0,.975-1.755.975l-5.85-.39L220.188,0a12.006,12.006,0,0,1-2.568-.162.67.67,0,0,1-.553-.683.9.9,0,0,1,.52-.812,3.366,3.366,0,0,1,1.1-.39,2.126,2.126,0,0,0,1.105-.585,2.151,2.151,0,0,0,.52-1.625,23.806,23.806,0,0,0-1.625-5.557,56.668,56.668,0,0,0-2.73-6.5q-.585-1.105-2.665-1.105l-7.865.13h-3.445a12.145,12.145,0,0,0-3.673.325A2.581,2.581,0,0,0,197.08-15.6q-.487,1.04-1.4,2.892t-1.235,2.568q-.325.715-.78,1.82a8.567,8.567,0,0,0-.845,3.25,2.88,2.88,0,0,0,.747,2.08,2.835,2.835,0,0,0,1.658.91q2.4.2,2.4,1.235a1.026,1.026,0,0,1-.195.683q-.2.228-.91.227ZM206.8-37.05q-.585,0-3.705,7.182t-3.12,7.962a.9.9,0,0,0,.585.975,11.326,11.326,0,0,0,2.73.195H205.3l6.175-.065q2.535,0,2.535-.943t-3.185-8.125Q207.643-37.05,206.8-37.05Zm37.44,13.975.195-11.245q0-1.755-.13-5.915a3.475,3.475,0,0,0-1.625-2.925,5.594,5.594,0,0,0-2.925-1.072q-1.365-.033-1.528-.26a1.175,1.175,0,0,1-.162-.682q0-1.17,1.755-1.17l1.755.13,5.655.26,6.825-.26q1.1,0,1.1.65a1.16,1.16,0,0,1-.78,1.2,6.919,6.919,0,0,1-1.723.39,2.718,2.718,0,0,0-1.82,1.43,7.936,7.936,0,0,0-1.007,3.932q-.13,2.6-.325,14.235t-.2,13v2.6q0,4.68,1.592,5.168a9.65,9.65,0,0,0,2.762.487q9.75,0,14.04-1.56,3.9-1.43,4.68-2.99.845-1.625,1.495-1.625.78,0,.78,1.1,0,2.8-2.795,5.655T266.987.325q-4.68,0-10.562-.325t-7.312-.325L240.987.2Q239.1.2,239.1-.585a.923.923,0,0,1,.357-.748,1.551,1.551,0,0,1,1.008-.293,3.146,3.146,0,0,0,1.69-.78,5.358,5.358,0,0,0,1.56-3.217,54.383,54.383,0,0,0,.52-9.393Zm40.82,0,.2-11.245q0-1.755-.13-5.915A3.475,3.475,0,0,0,283.5-43.16a5.594,5.594,0,0,0-2.925-1.072q-1.365-.033-1.527-.26a1.175,1.175,0,0,1-.163-.682q0-1.17,1.755-1.17l1.755.13,5.655.26,6.825-.26q1.1,0,1.1.65a1.16,1.16,0,0,1-.78,1.2,6.919,6.919,0,0,1-1.723.39,2.718,2.718,0,0,0-1.82,1.43,7.936,7.936,0,0,0-1.008,3.932q-.13,2.6-.325,14.235t-.195,13v2.6q0,4.68,1.592,5.168a9.65,9.65,0,0,0,2.762.487q9.75,0,14.04-1.56,3.9-1.43,4.68-2.99.845-1.625,1.495-1.625.78,0,.78,1.1,0,2.8-2.795,5.655T307.807.325q-4.68,0-10.562-.325t-7.312-.325L281.807.2q-1.885,0-1.885-.78a.923.923,0,0,1,.358-.748,1.551,1.551,0,0,1,1.007-.293,3.146,3.146,0,0,0,1.69-.78,5.358,5.358,0,0,0,1.56-3.217,54.381,54.381,0,0,0,.52-9.393Z" transform="translate(960 471)" fill="#fff"/>
    <path id="パス_12619" data-name="パス 12619" d="M-249.08-23.4a50.709,50.709,0,0,0,2.8-6.44c.76-.08,1.2-.44,1.2-.84,0-.36-.24-.52-.56-.72l-4.12-2.36a29.419,29.419,0,0,1-.44,3.6c-.6,2.24-4.04,12.28-7.52,18l.24.24a35.451,35.451,0,0,0,6.48-8v3.56c0,4.48-.04,9.04-.16,13.52,0,.4-.16,4.72-.16,4.84,0,.68.12,1.32,1,1.32,2.84,0,2.84-1.56,2.84-2.72,0-.72-.12-4.2-.16-5-.16-5.68-.2-11.12-.2-16.72.52-.4.84-.72.84-1.04,0-.36-.36-.56-.64-.68Zm7.96,21.36c-1.88,0-3.8-.08-5.68-.24l.64,1.48a23.255,23.255,0,0,1,4.32-.28h20.52c.28,0,.64-.04.64-.4,0-.28-.2-.44-.4-.64l-3.04-2.6c-.16-.12-.48-.4-.72-.4-.2,0-.24.04-.64.48l-2.24,2.6Zm1.64-23.8a53.5,53.5,0,0,1-5.68-.24l.64,1.48a23.255,23.255,0,0,1,4.32-.28h16.04c.24,0,.6-.04.6-.4,0-.28-.16-.44-.4-.64l-3-2.4c-.44-.36-.52-.44-.76-.44-.2,0-.48.32-.6.52l-1.6,2.4ZM-197.96-1c9.08-.8,16.28-6.08,16.28-14.4,0-7.92-6.72-12.64-14.92-12.64-9.72,0-17.16,7-17.16,15.6a6.563,6.563,0,0,0,1.8,4.64,6.941,6.941,0,0,1,1.6,1.68c1.24,1.76,1.68,2.36,2.56,2.36,1.12,0,2.48-.28,6.64-8.12,2.2-4.12,5.16-10.64,5.16-11.2,0-.6-.76-2.28-3.44-3.44a15.344,15.344,0,0,1,2.52-.2c7.92,0,11.52,5.16,11.52,10.72,0,9.8-9.64,13.6-12.56,14.72Zm-3-25.28a3.361,3.361,0,0,1,1.36,2.52c0,2.4-3.56,9.64-4.84,12.08-.84,1.56-2.4,4.52-3.68,4.52-1.48,0-2.68-3.44-2.68-6C-210.8-18.32-206.4-25.04-200.96-26.28Zm61.36.2a1.051,1.051,0,0,0-.28-.6l-3-3.16a.79.79,0,0,0-.56-.24.774.774,0,0,0-.48.24l-2.12,2h-9.16c-.04-.96-.04-1.68-.04-2.36.72-.32,1.44-.64,1.44-1.28,0-.52-.48-.68-.84-.76l-4.84-1.04a12.541,12.541,0,0,1,.88,5.44H-168c-.08-.44-.08-.6-.4-2.04h-.32c-.92,3.56-2.88,5.04-3.24,5.24-1.88,1.2-2.44,1.52-2.44,2.72a1.865,1.865,0,0,0,1.96,1.84c2.36,0,4.4-2.44,4.48-6.8h21.8a18.748,18.748,0,0,1-2.04,3.64l.24.2c.88-.36,5.16-2.24,6.16-2.64a8.439,8.439,0,0,0,1.36.2C-140.08-25.48-139.6-25.64-139.6-26.08Zm1.44,24.6v-.24c-7.84.36-12.96-1.36-17.48-6.6h15.32c.24,0,.6-.08.6-.44a.86.86,0,0,0-.4-.6l-2.4-1.88c-.48-.4-.56-.4-.76-.4-.16,0-.16,0-.6.48l-1.64,1.88h-10.96a23.387,23.387,0,0,0,.88-4.48h8.92c.28,0,.64-.08.64-.44,0-.24-.12-.32-.48-.64l-1.92-1.68c-.28-.24-.48-.44-.72-.44-.16,0-.24.08-.64.52l-1.6,1.72h-4.12c.04-.64.12-3.8.12-4.52h9.88c.28,0,.6-.08.6-.44,0-.24-.16-.4-.44-.64l-2-1.72c-.16-.12-.48-.4-.72-.4-.2,0-.24.04-.64.48l-1.48,1.76h-5.16c.04-1.08.08-2.8.12-3.28.4-.08,1.24-.36,1.24-.92,0-.44-.44-.6-.72-.68l-4.76-1.16a23.354,23.354,0,0,1,.72,6.04h-4.52c-.44,0-3.24-.04-5.68-.24l.64,1.48a20.1,20.1,0,0,1,4.32-.28h5.24a40.9,40.9,0,0,1-.24,4.52h-3.92c-.44,0-3.28-.04-5.72-.24l.68,1.44a24.18,24.18,0,0,1,4.32-.24h4.56a29.7,29.7,0,0,1-.88,4.48h-8.68c-.44,0-3.24-.04-5.68-.24l.64,1.44a24.493,24.493,0,0,1,4.32-.24h9.08C-162.36-2.56-168.84.6-173.96,2.4v.32c11.44-1.4,15.8-7.48,17.16-11.04h.2c3.28,5.76,8.28,10.68,14.8,11.16A5.513,5.513,0,0,1-138.16-1.48Zm35.4-26.96c0-2.36-3.32-3.4-5.88-3.92l-.16.2a9.172,9.172,0,0,1,2.28,3.52c.44,1.04.8,1.96,1.96,1.96A1.8,1.8,0,0,0-102.76-28.44Zm5.16,14.16c0-.28-.2-.44-.44-.64l-2.24-1.68a2.03,2.03,0,0,0-.72-.36c-.24,0-.36.12-.64.56l-1.32,1.92-5.8.4c-.32-1.8-.4-2.24-.68-4.44l9.84-.68c.28,0,.6-.12.6-.44,0-.28-.12-.36-.44-.64l-2.2-1.76a1.6,1.6,0,0,0-.72-.4c-.28,0-.52.4-.6.56l-1,2-5.6.4c-.16-2.4-.2-2.76-.24-4.56l9.84-.72c.32-.04.56-.12.56-.44,0-.24-.16-.4-.44-.6l-2.04-1.4c-.44-.32-.56-.36-.76-.36-.16,0-.28.04-.6.52l-1.04,1.6-5.52.4c-.04-1.44,0-2.72.08-4.4.44-.24,1.24-.8,1.24-1.28,0-.4-.36-.48-.84-.6l-4.64-1.16c.76,2,.76,2.32,1.08,7.68-.36.04-3.04.2-5.92.2l.76,1.4a26.156,26.156,0,0,1,4.28-.56l.96-.08c.04.72.24,4.32.28,4.56-1.04.04-3.32.16-5.32.12l.76,1.44a23.936,23.936,0,0,1,4.64-.6,44.777,44.777,0,0,0,.56,4.48c-2.96.16-4,.2-5.76.16l.76,1.44a18.076,18.076,0,0,1,4.28-.6l.88-.04a28.1,28.1,0,0,0,2,6.36,54.789,54.789,0,0,1-11.56,8.56l.12.32a42.853,42.853,0,0,0,12.8-6.28c3.44,5.32,7.16,7.08,8.96,7.08A1.552,1.552,0,0,0-97.64,1.6a2.664,2.664,0,0,0-.2-.96,3.678,3.678,0,0,1-.56-2.12c0-1.2.04-4.2.16-5.24h-.36c-.8,2.44-2.24,5.16-2.96,5.16-.36,0-2.2-.88-4.36-4.4a41.116,41.116,0,0,0,3.32-3.48c.32-.08,1.28-.24,1.28-.8,0-.28-.12-.4-.4-.6l-3.08-2.36A13.136,13.136,0,0,1-107.36-9a26.541,26.541,0,0,1-1.2-4.12l10.4-.76C-97.92-13.88-97.6-13.96-97.6-14.28Zm-17.76,8.16-.04-.24a48.039,48.039,0,0,1-7.92,2.52v-7.2h5.16c.28,0,.6-.04.6-.4,0-.28-.16-.44-.4-.64l-2.16-1.84c-.2-.16-.52-.44-.76-.44s-.48.28-.6.48l-.96,1.88h-.88v-8.8h.48c-.04,1.12-.08,2,1.2,2,1,0,1.96-.48,1.96-1.4,0-1.44,0-6.56-.04-8.2.36-.36,1.24-1.2,1.24-1.48a.774.774,0,0,0-.4-.64l-1.76-1.36c-.56-.44-.64-.48-.88-.48s-.52.36-.68.56l-.92,1.16h-5.16l-3.6-2.04a15.413,15.413,0,0,1,.28,2.28c.16,3.04-.04,7.92-.04,10.96,0,1.08.64,1.2,1.12,1.2,1.6,0,2.2-1.04,2.2-1.64a8.422,8.422,0,0,0-.04-.92h2.24V-3.16c-.32.04-1.92.4-2.28.44v-10.8c.84-.6,1.16-.84,1.16-1.32,0-.28-.32-.48-.56-.56l-4.08-1.4a16.753,16.753,0,0,1,.48,1.92c.24,1.56.28,4.64.32,12.56a20.335,20.335,0,0,1-3.72-.24l2.56,4.2c.2.32.52.76.88.76.28,0,.48-.32.56-.44.08-.16.32-.8.4-1.04C-127.64-.12-119-3.68-115.36-6.12Zm-7.48-15.64h-5.52v-7.92h5.52Zm65.72,3.08c0-2.48-4.08-4.2-7.04-4.36a11.17,11.17,0,0,1,3.48,3.52c.92,1.72,1.28,2.32,2.16,2.32A1.424,1.424,0,0,0-57.12-18.68Zm-4.68,1.76c0-2.88-4.16-4.08-6.52-4.76a26.21,26.21,0,0,1,3.08,4.16c.76,1.56,1.08,2.16,2.12,2.16A1.381,1.381,0,0,0-61.8-16.92Zm2.64-10c0-1.2-1.88-2.4-3.76-2.4a10.287,10.287,0,0,0-3.08.8c-.88.28-19.4,4.68-20.68,4.68-1.4,0-2.36-.56-3.2-2.36a4.065,4.065,0,0,0-.88,2.52,3.64,3.64,0,0,0,3.16,3.8c.56,0,.8-.08,2.8-1,3.44-1.6,10.8-4.52,12.96-4.32-4.4,3.72-8.08,7.56-8.08,13.72a10.161,10.161,0,0,0,6.16,9.8A20.286,20.286,0,0,0-66.72.24c.76,0,2,0,2-1.52a2.317,2.317,0,0,0-1.36-2.08,54.01,54.01,0,0,0-5.44-1.4c-5.48-1.68-6.32-5.68-6.32-7.6,0-5.96,4.48-11.2,8.64-12.48a27.652,27.652,0,0,1,7.2-.6C-60.4-25.44-59.16-25.44-59.16-26.92ZM-41.04-.84c0-2.44-2.36-4.24-2.68-4.48-2.56-1.96-4.76-2.48-7.52-3.12l-.2.44a16.106,16.106,0,0,1,5.32,6.4c1.24,2.84,1.48,3.44,2.88,3.44C-41.56,1.84-41.04.24-41.04-.84ZM-5.6-29.92C-9.24-27-9.8-24.2-9.8-23.16a2.578,2.578,0,0,0,2.56,2.68,2.578,2.578,0,0,0,2.56-2.56A2.633,2.633,0,0,0-6.72-25.6a.56.56,0,0,1-.44-.52c0-.16.12-1.48,2.2-3.16Zm-6.32,0c-3.64,2.92-4.2,5.72-4.2,6.76a2.578,2.578,0,0,0,2.56,2.68A2.552,2.552,0,0,0-11-23.04a2.645,2.645,0,0,0-2-2.56.523.523,0,0,1-.44-.52c0-.2.16-1.48,2.2-3.16Zm48.4,7.04c0-.24-.4-.64-.44-.68l-1.76-1.76a1.674,1.674,0,0,0-.72-.44c-.32,0-.72.6-.76.68l-1,1.68h-.4c-.04-1.32-.04-2.08-.04-3.12.96-.56,1.28-.84,1.28-1.12,0-.12,0-.2-.44-.6l-1.32-1.2c-.36-.36-.56-.44-.72-.44-.24,0-.24.08-.84.68L28.2-28.04H25.04c0-.32,0-2.12.04-2.32.6-.32,1.16-.64,1.16-1.16,0-.48-.56-.56-.92-.64l-3.96-.8a28.184,28.184,0,0,1,.72,4.92,49.071,49.071,0,0,1-5.44-.24l.68,1.48a24.592,24.592,0,0,1,4.8-.28c.12,2.04.16,3.04.16,3.68h-1.8c-.44,0-3.28-.04-5.68-.24l.64,1.48a20.1,20.1,0,0,1,4.32-.28h2.56c0,1.24-.04,2.52-.08,3.76-1.8-.04-2.92-.12-4.28-.24l.64,1.48a22.846,22.846,0,0,1,3.64-.28c0,.6-.08,3.44-.08,4.08-1.92-.04-3-.04-4.8-.2L18-12.4a22.208,22.208,0,0,1,4.16-.24c0,.52-.08,3.16-.08,3.76-.88,0-3.56-.04-5.88-.24l.64,1.48a20.1,20.1,0,0,1,4.32-.28h.88c-.04.52-.16,3-.16,3.56,0,1.12.2,1.6,1.4,1.6,2.04,0,2.04-.92,2.04-1.68,0-.28-.08-2.92-.12-3.48h9c.24,0,.6-.04.6-.44a.86.86,0,0,0-.4-.6L32.08-10.8c-.4-.32-.52-.4-.72-.4s-.2,0-.68.56L29.16-8.88h-4c0-.52-.08-3.16-.08-3.76H32c.28,0,.64-.08.64-.44a.86.86,0,0,0-.4-.6l-2-1.6c-.44-.32-.52-.44-.72-.44s-.24.04-.64.52l-1.36,1.6H25.08c-.04-1.56-.04-2.24-.04-4.12h3.4c-.04.88-.12,1.64,1.04,1.64,2.2,0,2.2-1.32,2.2-2.12,0-.24-.2-3.76-.24-4.24h4.44C36.12-22.44,36.48-22.52,36.48-22.88Zm-7.92-.52H25.04v-3.68h3.48C28.52-26.48,28.56-23.92,28.56-23.4Zm0,.96c.04.68.04,1.72-.04,3.76H25.04v-3.76Zm8.28,20-.08-.2c-2.12.32-8.52.76-10.92.76-4.24,0-7.84-.56-11.12-4.56a33.694,33.694,0,0,0,2.84-9.12c.84-.52,1.16-.72,1.16-1.16a1.441,1.441,0,0,0-.4-.72L16.6-19.36c-.24-.24-.32-.28-.44-.28-.24,0-.6.32-.76.44l-1.32,1.12h-2a55.036,55.036,0,0,1,2.4-7.52c.24-.16,1.2-.68,1.4-.84a.6.6,0,0,0,.2-.48,1.259,1.259,0,0,0-.36-.68l-1.64-1.72c-.28-.32-.32-.32-.48-.32s-.24.04-.72.48l-1.4,1.2c-1.36-.04-1.48-.08-2.2-.12l.68,1.2A17.525,17.525,0,0,1,11.84-27c-.92,3.16-1.72,5.72-2,6.64C9.64-19.6,8.4-16,8.4-15.64c0,.44.44.96,1.52.96,1.36,0,1.56-.68,1.92-2.44H14.6a46.431,46.431,0,0,1-1.4,8.28,23.982,23.982,0,0,1-1.84-5.72l-.32.04A17.34,17.34,0,0,0,12.48-6.6,22.57,22.57,0,0,1,8.72.44l.36.28a24.97,24.97,0,0,0,4.6-5.24C16.56-.44,20.2,2,34.52,1.68,35.16-1.12,36.2-1.96,36.84-2.44ZM11.28-31.04a.751.751,0,0,0-.44-.64L7-33.56a20.8,20.8,0,0,1-.68,3.52C4.76-23.84.36-15.8-.68-13.92l.36.24A35.467,35.467,0,0,0,5.12-20.4c0,1.08.08,6.28.08,7.44,0,3.12-.12,6.48-.24,9.2C4.92-3,4.68.76,4.68,1.6A1.273,1.273,0,0,0,6.12,3.08c.68,0,2.16-.28,2.16-1.76,0-2.2-.16-5.68-.2-7.88,0-2.16,0-12.84-.08-15.28,1.12-.76,1.24-.84,1.24-1.2,0-.4-.48-.6-.68-.68L7.2-24.24c.92-1.96,2-4.2,2.88-5.8C11.16-30.64,11.28-30.68,11.28-31.04ZM76.8-17.6a.854.854,0,0,0-.4-.6L74-20c-.48-.36-.56-.4-.76-.4-.24,0-.44.28-.6.52l-1.2,1.76H69.96v-3c.92-.52,1.12-.76,1.12-1.16,0-.24-.28-.52-.36-.6L68.68-24.4c-.2-.12-.36-.28-.52-.28-.12,0-.24,0-.64.4L66.4-23.2H60.56a3.955,3.955,0,0,1,.04-.6c.08-.04,1.16-.68,1.16-1.16,0-.4-.56-.52-.76-.56l-4.04-.92a8.563,8.563,0,0,1,.52,3.24H54.36c-.44,0-3.28,0-5.68-.24l.64,1.48a23.255,23.255,0,0,1,4.32-.28h3.88c0,.6.04,3.48.08,4.12H53.52c-.44,0-3.24-.04-5.68-.24l.64,1.48a20.1,20.1,0,0,1,4.32-.28h4.8c0,.6-.04,3.28-.04,3.8h-3.2c-.44,0-3.28-.04-5.68-.24l.64,1.48a20.1,20.1,0,0,1,4.32-.28H57.6V-1.92c0,.68-.16,1-.76,1-.08,0-3.44-.36-3.8-.36v.32a6.273,6.273,0,0,1,3.28,4.24,4.248,4.248,0,0,0,2.88-.76c1.56-1,1.64-2.12,1.64-4.6,0-1.44-.2-8.68-.2-10.32h.56c.44,3.32,4.68,11.2,10.96,14.16A7.29,7.29,0,0,1,76.24-.96v-.2A23.664,23.664,0,0,1,65.72-6.8c2.44-.64,4.24-1.24,6.44-1.96,1.12-.04,1.68-.08,1.68-.8a.707.707,0,0,0-.32-.6L70.6-12.52a6.305,6.305,0,0,1-.76,1.28,24.873,24.873,0,0,1-4.56,4,12.112,12.112,0,0,1-3.32-5.16h4.76c.04.88.16,1.32,1.28,1.32,1.04,0,2.12-.4,2.12-1.84,0-.6-.12-3.56-.12-4.24h6.2C76.44-17.16,76.8-17.2,76.8-17.6Zm-10.08-.52H60.6v-4.12h6.12Zm0,4.76H60.64c-.04-.6-.04-3.24-.04-3.8h6.12Zm9-13.92a.793.793,0,0,0-.4-.64L72.4-30.04c-.48-.32-.64-.44-.8-.44-.24,0-.48.28-.6.52l-1.2,2.12H60.6a23.939,23.939,0,0,1,0-2.96c.56-.32,1.4-.84,1.4-1.28,0-.2-.16-.56-.72-.68l-4.72-1.12c.64,1.48.64,2.6.72,6.04H48.04L43.76-30a55.831,55.831,0,0,1,.76,9.64c0,12.28-1.68,16.32-4.48,21.48l.24.24c7.6-6.2,7.6-14.56,7.6-28.24H75.12C75.44-26.88,75.72-26.96,75.72-27.28ZM54.44-8.12c0-2.64-3.72-3.12-6.12-3.44v.32A10.636,10.636,0,0,1,50.6-8.4c.84,1.52,1.12,2.04,2.04,2.04A1.806,1.806,0,0,0,54.44-8.12ZM57.2-6.6l-.24-.28a75.745,75.745,0,0,1-7.68,2.92,11.255,11.255,0,0,1-4.24.6L47.68.44a.567.567,0,0,0,.56.28c.16,0,.52-.12.68-1.24.6-.4.92-.64,3.84-2.68A53.652,53.652,0,0,0,57.2-6.6ZM82.64-20.48c3.6-2.96,4.16-5.72,4.16-6.8a2.52,2.52,0,0,0-2.56-2.64,2.552,2.552,0,0,0-2.56,2.56,2.621,2.621,0,0,0,2.04,2.52.523.523,0,0,1,.44.52c0,.12-.16,1.44-2.2,3.16Zm6.28,0c3.64-2.96,4.2-5.72,4.2-6.8a2.542,2.542,0,0,0-2.56-2.64A2.552,2.552,0,0,0,88-27.36a2.582,2.582,0,0,0,2.04,2.52.532.532,0,0,1,.4.52c0,.12-.12,1.48-2.16,3.16ZM130.2-17.6c0-2.24-3.08-3.68-5.16-3.68a3,3,0,0,0-1.04.2c1.12.68,1.36.84,1.36,1.44,0,.48-.2.84-1.16,1.32-3.52,1.72-6,3.16-7,3.76a4.476,4.476,0,0,0-4.56-3.6,14.365,14.365,0,0,0-4.48.84c.04-.08.2-.4.32-.6.4-.68,3.32-4.64,3.96-5.52a46.5,46.5,0,0,0,8.36-1.84c.64-.2,1.2-.56,1.2-1.28,0-.96-1.12-1.56-2.12-1.56a2.572,2.572,0,0,0-.88.16c-.36.12-3.04,1.08-4.56,1.64a16.251,16.251,0,0,1,1.96-2.48,2.224,2.224,0,0,0,.76-1.44c0-.96-2-2.56-3.88-2.56a4.256,4.256,0,0,0-3.04,1.36c1.52,0,3,.84,3,1.56,0,.6-1.68,3.52-2.12,4.32a31.665,31.665,0,0,1-4.32.44,5.14,5.14,0,0,1-4.24-1.64,2.265,2.265,0,0,0-.12.72c0,.56.48,3.24,4.24,3.24a22.146,22.146,0,0,0,3-.28,30.443,30.443,0,0,1-6.76,8.48,4.054,4.054,0,0,0-.84,2.8c0,1.28.32,1.76,1.36,1.76.68,0,1.2-.24,2.84-3.2.8-1.4,2.44-3.68,4.84-3.68,2.48,0,2.92,2.04,3.2,4.16-2,1.32-7.12,4.92-7.12,8.84,0,4.96,8.28,5.12,10.84,5.12a53.471,53.471,0,0,0,6.08-.4,1.712,1.712,0,0,0,1.36-1.56c0-.68-.52-2-2.48-2a9.518,9.518,0,0,0-1.44.12A35.772,35.772,0,0,1,115.4-2c-1.16,0-6.36,0-6.36-3.04,0-2.24,3.64-4.96,5.44-6.08.04.52.04.68.04,2.24,0,1.72.04,4.28,1.8,4.28,1.56,0,1.56-2.44,1.56-3.72a26.655,26.655,0,0,0-.32-4.36A45.062,45.062,0,0,1,128.2-16C129.8-16.36,130.2-16.56,130.2-17.6ZM176.4-1.24v-.28c-.72.04-1.44.12-2.48.12A26.237,26.237,0,0,1,159.32-6a31.252,31.252,0,0,0,6.6-9.48c.2-.12,1.24-.56,1.44-.64.4-.2.64-.36.64-.72a.533.533,0,0,0-.16-.4l-2.64-2.52a.854.854,0,0,0-.48-.28c-.36,0-.48.12-.72.4l-1.68,1.8h-3.68v-7.12h15.32c.28,0,.6-.04.6-.4a.86.86,0,0,0-.4-.6l-2.92-2.32c-.44-.32-.52-.44-.72-.44-.16,0-.24.12-.6.52l-2.12,2.28h-9.16v-4.2a7.639,7.639,0,0,1,.84-.56c.52-.32.6-.48.6-.72,0-.32-.2-.48-.56-.56l-5.36-1.48c.12.4.72,2.28.8,2.72a33.607,33.607,0,0,1,.32,4.8H144.6c-.44,0-3.28-.04-5.72-.24l.68,1.44a23.87,23.87,0,0,1,4.32-.24h11.4c0,.48.08,6.16.08,7.12h-6.64c-.44,0-3.24-.04-5.68-.24l.64,1.44a24.493,24.493,0,0,1,4.32-.24h1.52A24.164,24.164,0,0,0,155.2-6.2c-5.92,5.32-13.44,7.68-15.76,8.4v.32a32.57,32.57,0,0,0,17.84-6.64,32.235,32.235,0,0,0,14.76,7.24C173.76.76,174.84-.48,176.4-1.24ZM162.32-16.88a27.959,27.959,0,0,1-5.48,9.04c-3.04-2.64-5.4-5.36-6.56-9.04Zm40.44-9.56c0-2.52-3.76-3.76-4.64-4.04a13.734,13.734,0,0,1-6-3.24c.12,2.28.6,2.8,2.88,4.4,1.28.88,1.44,1,1.44,1.48a1.122,1.122,0,0,1-.44.8c-.88.68-1.72,1.32-2.64,1.92l.2.28c.2-.04.52-.16.68-.2,2.56-.72,2.84-.76,3.64-.76.56,0,3.2.72,3.84.72C202.4-25.08,202.76-25.8,202.76-26.44ZM213-.36a2.36,2.36,0,0,0-2.52-2.08,11.162,11.162,0,0,0-2.36.44,15.116,15.116,0,0,1-4.32.76c-2.4,0-2.8-.36-3.6-3.88-.36-1.68-.96-4.2-4.28-4.2a9.4,9.4,0,0,0-2.12.28c2.2-3.24,9.04-7.84,9.52-8.16,1-.64,1.36-.88,1.36-1.8,0-1.64-3.04-2.76-3.52-2.76a17.5,17.5,0,0,0-2.28.84c-2.24.84-6.72,2.36-8.8,2.36-1.4,0-1.88-.6-2.8-1.84a5.429,5.429,0,0,0-.48,1.92c0,2.08,3,3.4,3.68,3.4.72,0,.92-.16,2.04-1.08.28-.2,6.12-3.2,7.28-3.2.2,0,.44.08.44.32a.948.948,0,0,1-.32.56c-2.28,2.2-5.12,5.44-5.88,6.28-5,5.68-5.92,6.56-7.64,8.04-2.36,2.04-2.8,2.44-2.8,3.96a1.717,1.717,0,0,0,1.64,1.96c.92,0,1.52-.6,3.6-3.84,3.28-5.08,4.16-6,5.64-6,2.36,0,2.56,1.32,3.04,4.4.72,4.44,2.84,5.16,11.6,5.16C211.16,1.48,213,1.12,213-.36ZM251.76-9.4c0-3.48-2.36-7.44-9.24-7.44a18.728,18.728,0,0,0-9.08,2.48c.92-1.68,1.68-2.48,8.44-9.88a13.675,13.675,0,0,1,1.48-1.4c1.32-.96,1.6-1.16,1.6-2.08,0-.84-1.52-2.92-3.12-2.92a3.629,3.629,0,0,0-1.4.4c-.24.12-5.16,1.68-7.36,1.68-1.16,0-1.72,0-3.12-2.04a4.06,4.06,0,0,0-.56,2.08,3.924,3.924,0,0,0,3.32,3.68,12.379,12.379,0,0,0,1.72-.84,25.6,25.6,0,0,1,5.6-2.4.283.283,0,0,1,.32.28c0,.68-1.44,2.68-2.04,3.48-4.2,5.68-8.56,11.4-10.92,13.72-2.2,2.2-2.72,2.76-2.72,3.96a1.831,1.831,0,0,0,1.76,2.04c.8,0,1.04-.4,2.08-2,3.08-4.8,7.4-8.92,13.32-8.92,4.16,0,6.28,2.92,6.28,5.84,0,3.28-2.52,6.24-4.88,6.72-.72-2.16-2.72-5.32-6.36-5.32-1.8,0-4.72.88-4.72,3.68,0,3.52,4.32,4.92,8.08,4.92C248,.32,251.76-5.2,251.76-9.4ZM240.44-2.04a3.6,3.6,0,0,1-1.36.24c-1.12,0-5.24-.92-5.24-3.08a1.841,1.841,0,0,1,1.8-1.68C236.72-6.56,239.36-5.36,240.44-2.04Z" transform="translate(960 544)" fill="#fff"/>
  </g>
</svg>
